<?xml version="1.0" encoding="UTF-8" standalone="no"?>
<!-- Created with Inkscape (http://www.inkscape.org/) -->

<svg
   xmlns:dc="http://purl.org/dc/elements/1.1/"
   xmlns:cc="http://creativecommons.org/ns#"
   xmlns:rdf="http://www.w3.org/1999/02/22-rdf-syntax-ns#"
   xmlns:svg="http://www.w3.org/2000/svg"
   xmlns="http://www.w3.org/2000/svg"
   xmlns:sodipodi="http://sodipodi.sourceforge.net/DTD/sodipodi-0.dtd"
   xmlns:inkscape="http://www.inkscape.org/namespaces/inkscape"
   width="1080"
   height="2160"
   id="svg3011"
   version="1.1"
   inkscape:version="0.48.5 r10040"
   sodipodi:docname="gforce.svg">
  <defs
     id="defs3013" />
  <sodipodi:namedview
     id="base"
     pagecolor="#ffffff"
     bordercolor="#666666"
     borderopacity="1.0"
     inkscape:pageopacity="0.0"
     inkscape:pageshadow="2"
     inkscape:zoom="0.24748737"
     inkscape:cx="574.79435"
     inkscape:cy="1534.9366"
     inkscape:document-units="in"
     inkscape:current-layer="layer1"
     showgrid="true"
     units="in"
     inkscape:window-width="1920"
     inkscape:window-height="1035"
     inkscape:window-x="0"
     inkscape:window-y="0"
     inkscape:window-maximized="1"
     gridtolerance="10000"
     objecttolerance="20"
     guidetolerance="21">
    <inkscape:grid
       type="xygrid"
       id="grid3019"
       empspacing="8"
       visible="true"
       enabled="true"
       snapvisiblegridlinesonly="true"
       units="in"
       spacingx="0.125in"
       spacingy="0.125in"
       dotted="false" />
  </sodipodi:namedview>
  <metadata
     id="metadata3016">
    <rdf:RDF>
      <cc:Work
         rdf:about="">
        <dc:format>image/svg+xml</dc:format>
        <dc:type
           rdf:resource="http://purl.org/dc/dcmitype/StillImage" />
        <dc:title />
      </cc:Work>
    </rdf:RDF>
  </metadata>
  <g
     inkscape:label="Layer 1"
     inkscape:groupmode="layer"
     id="layer1"
     transform="translate(0,1107.6403)">
    <path
       style="opacity:0.19166667;fill:#0000ff;stroke:#0000ff;stroke-width:0.03543307;stroke-linecap:butt;stroke-linejoin:miter;stroke-miterlimit:4;stroke-opacity:1;stroke-dasharray:none"
       d="m 742.5,-1040.1403 -66.1875,-13.1875 -2.2187,11.0312 -88.25005,-17.5937 2.1875,-11.0313 -70.59375,-14.0625 0.0312,-0.1562 -89.96875,0 0,11.25 -90,0 0,-11.25 -90,0 -66.71875,13.3437 2.15625,10.875 -88.25,17.625 -2.15625,-10.8437 -70.03122,14 0,11.25 0,33.74999 0,112.50001 0,33.75 11.25,0 0,90 -11.25,0 0,135 11.25,0 0,90 -11.25,0 0,135 11.25,0 0,90 -11.25,0 0,33.75 0,112.5 0,33.75 0,11.25 69.65622,13.9375 2.125,-10.7813 88.28125,17.625 -2.15625,10.8126 67.09375,13.4062 90,0 0,-11.25 90,0 0,11.25 90,0 -0.0937,-0.5312 70.625,-14.0626 -2.1875,-11.0312 88.25005,-17.5938 2.2187,11.0313 66.1875,-13.1875 0,-10.875 0,-33.75 0,-112.5 0,-33.75 -11.25,0 0,-90 11.25,0 0,-135 -11.25,0 0,-90 11.25,0 0,-135 -11.25,0 0,-90 11.25,0 0,-33.75 0,-112.50001 0,-33.74999 0,-11.25 z m -67.5,22.5 c 0,6.2132 -5.0368,11.25 -11.25,11.25 -6.2132,0 -11.25,-5.0368 -11.25,-11.25 0,-6.2132 5.0368,-11.25 11.25,-11.25 6.2132,0 11.25,5.0368 11.25,11.25 z m 0,157.5 c 0,6.2132 -5.0368,11.25 -11.25,11.25 -6.2132,0 -11.25,-5.0368 -11.25,-11.25 0,-6.21321 5.0368,-11.25 11.25,-11.25 6.2132,0 11.25,5.03679 11.25,11.25 z m 0,562.5 c 0,6.21319 -5.0368,11.25 -11.25,11.25 -6.2132,0 -11.25,-5.03681 -11.25,-11.25 0,-6.2132 5.0368,-11.25 11.25,-11.25 6.2132,0 11.25,5.0368 11.25,11.25 z m 0,157.5 c 0,6.21319 -5.0368,11.25 -11.25,11.25 -6.2132,0 -11.25,-5.03681 -11.25,-11.25 0,-6.2132 5.0368,-11.25 11.25,-11.25 6.2132,0 11.25,5.0368 11.25,11.25 z m -67.5,-877.5 c 0,6.2132 -5.0368,11.25 -11.25,11.25 -6.2132,0 -11.25,-5.0368 -11.25,-11.25 0,-6.2132 5.0368,-11.25 11.25,-11.25 6.2132,0 11.25,5.0368 11.25,11.25 z m 0,157.5 c 0,6.2132 -5.0368,11.25 -11.25,11.25 -6.2132,0 -11.25,-5.0368 -11.25,-11.25 0,-6.21321 5.0368,-11.25 11.25,-11.25 6.2132,0 11.25,5.03679 11.25,11.25 z m 0,562.5 c 0,6.21319 -5.0368,11.25 -11.25,11.25 -6.2132,0 -11.25,-5.03681 -11.25,-11.25 0,-6.2132 5.0368,-11.25 11.25,-11.25 6.2132,0 11.25,5.0368 11.25,11.25 z m 0,157.5 c 0,6.21319 -5.0368,11.25 -11.25,11.25 -6.2132,0 -11.25,-5.03681 -11.25,-11.25 0,-6.2132 5.0368,-11.25 11.25,-11.25 6.2132,0 11.25,5.0368 11.25,11.25 z m -427.5,-877.5 c 0,6.2132 -5.0368,11.25 -11.25,11.25 -6.2132,0 -11.25,-5.0368 -11.25,-11.25 0,-6.2132 5.0368,-11.25 11.25,-11.25 6.2132,0 11.25,5.0368 11.25,11.25 z m 0,157.5 c 0,6.2132 -5.0368,11.25 -11.25,11.25 -6.2132,0 -11.25,-5.0368 -11.25,-11.25 0,-6.21321 5.0368,-11.25 11.25,-11.25 6.2132,0 11.25,5.03679 11.25,11.25 z m 0,562.5 c 0,6.21319 -5.0368,11.25 -11.25,11.25 -6.2132,0 -11.25,-5.03681 -11.25,-11.25 0,-6.2132 5.0368,-11.25 11.25,-11.25 6.2132,0 11.25,5.0368 11.25,11.25 z m 0,157.5 c 0,6.21319 -5.0368,11.25 -11.25,11.25 -6.2132,0 -11.25,-5.03681 -11.25,-11.25 0,-6.2132 5.0368,-11.25 11.25,-11.25 6.2132,0 11.25,5.0368 11.25,11.25 z m -67.5,-877.5 c 0,6.2132 -5.0368,11.25 -11.25,11.25 -6.2132,0 -11.25003,-5.0368 -11.25003,-11.25 0,-6.2132 5.03683,-11.25 11.25003,-11.25 6.2132,0 11.25,5.0368 11.25,11.25 z m 0,157.5 c 0,6.2132 -5.0368,11.25 -11.25,11.25 -6.2132,0 -11.25003,-5.0368 -11.25003,-11.25 0,-6.21321 5.03683,-11.25 11.25003,-11.25 6.2132,0 11.25,5.03679 11.25,11.25 z m 0,562.5 c 0,6.21319 -5.0368,11.25 -11.25,11.25 -6.2132,0 -11.25003,-5.03681 -11.25003,-11.25 0,-6.2132 5.03683,-11.25 11.25003,-11.25 6.2132,0 11.25,5.0368 11.25,11.25 z m 0,157.5 c 0,6.21319 -5.0368,11.25 -11.25,11.25 -6.2132,0 -11.25003,-5.03681 -11.25003,-11.25 0,-6.2132 5.03683,-11.25 11.25003,-11.25 6.2132,0 11.25,5.0368 11.25,11.25 z"
       id="path3117-3-6"
       inkscape:connector-curvature="0" />
    <path
       style="opacity:0.29583333;fill:#0000ff;fill-opacity:1;stroke:#0000ff;stroke-width:0.03543307;stroke-miterlimit:4;stroke-opacity:1;stroke-dasharray:none"
       d="m 112.5,343.6097 0,90 -11.25,0 0,90 11.25,0 0,90 45,0 0,-11.25 90,0 0,11.25 45,0 0,-90 11.25,0 0,-90 -11.25,0 0,-90 -45,0 0,11.25 -90,0 0,-11.25 -45,0 z m 106.875,56.25 c 15.53301,0 28.125,12.59199 28.125,28.125 0,15.53301 -12.59199,28.125 -28.125,28.125 -15.53301,0 -28.125,-12.59199 -28.125,-28.125 0,-15.53301 12.59199,-28.125 28.125,-28.125 z m 0,101.25 c 15.53301,0 28.125,12.59199 28.125,28.125 0,15.53301 -12.59199,28.125 -28.125,28.125 -15.53301,0 -28.125,-12.59199 -28.125,-28.125 0,-15.53301 12.59199,-28.125 28.125,-28.125 z"
       id="rect4025"
       inkscape:connector-curvature="0" />
    <path
       style="opacity:0.29583333;fill:#0000ff;fill-opacity:1;stroke:#0000ff;stroke-width:0.03543307;stroke-miterlimit:4;stroke-opacity:1;stroke-dasharray:none"
       d="m 585,309.8597 -90,0 0,-11.25 -90,0 0,11.25 -90,0 0,45 11.25,0 0,90 -11.25,0 0,45 90,0 0,11.25 90,0 0,-11.25 90,0 0,-45 -11.25,0 0,-90 11.25,0 0,-45 z"
       id="rect4385"
       inkscape:connector-curvature="0" />
    <path
       inkscape:connector-curvature="0"
       id="path4472"
       d="m 416.5639,676.22145 11.24984,-0.0567 0.22697,44.99943 67.49914,-0.34034 0.0567,11.24985 89.99886,-0.45386 -0.0567,-11.24985 71.9991,-0.3631 -0.22697,-44.99943 6.74992,-0.0341 -0.45387,-89.99885 -6.74991,0.0341 -0.22696,-44.99943 -71.99908,0.36309 -0.0567,-11.24986 -89.99885,0.45386 0.0567,11.24986 -67.49914,0.34044 0.22696,44.99943 -11.24985,0.0568 0.45387,89.99885 z m 44.68739,-62.10115 c -0.0783,-15.53281 12.44999,-28.18814 27.9828,-28.26648 15.53281,-0.0783 28.18815,12.45 28.26648,27.98281 0.0784,15.53281 -12.44999,28.18815 -27.98281,28.26648 -15.53281,0.0783 -28.18813,-12.45 -28.26647,-27.98281 z M 562.5,613.6097 c -0.0783,-15.53281 12.45,-28.18814 27.98281,-28.26648 15.53281,-0.0783 28.18814,12.45001 28.26648,27.98282 0.0783,15.53281 -12.45,28.18815 -27.98281,28.26648 -15.53282,0.0783 -28.18814,-12.45001 -28.26648,-27.98282 z"
       style="opacity:0.29583333;fill:#0000ff;fill-opacity:1;stroke:#0000ff;stroke-width:0.03543307;stroke-miterlimit:4;stroke-opacity:1;stroke-dasharray:none" />
    <path
       inkscape:connector-curvature="0"
       id="path4477"
       d="m 157.47068,73.59293 0.004,11.24991 -44.99998,0.0169 0.0253,67.49996 -11.24998,0.004 0.0338,89.99995 11.25001,-0.004 0.027,71.99997 44.99999,-0.0169 0.003,6.74999 89.99998,-0.0338 -0.003,-6.75 44.99999,-0.0169 -0.027,-72 11.24999,-0.004 -0.0337,-89.99998 -11.25006,0.004 -0.0253,-67.49996 -45.00001,0.017 -0.004,-11.24999 -89.99996,0.0339 z m 61.89185,44.97668 c 15.53299,-0.006 28.12973,12.58148 28.13555,28.11441 0.006,15.53303 -12.58141,28.12972 -28.11441,28.13555 -15.533,0.006 -28.12972,-12.58139 -28.13557,-28.11442 -0.006,-15.53302 12.58143,-28.12971 28.11443,-28.13554 z m 0.038,101.24993 c 15.53304,-0.006 28.12972,12.58149 28.13557,28.11449 0.006,15.533 -12.58143,28.12972 -28.11443,28.13556 -15.53302,0.006 -28.12975,-12.58143 -28.13556,-28.11449 -0.006,-15.53303 12.58141,-28.12972 28.11442,-28.13556 z"
       style="opacity:0.29583333;fill:#0000ff;fill-opacity:1;stroke:#0000ff;stroke-width:0.03543307;stroke-miterlimit:4;stroke-opacity:1;stroke-dasharray:none" />
    <path
       style="opacity:0.29583333;fill:#0000ff;fill-opacity:1;stroke:#0000ff;stroke-width:0.03543307;stroke-miterlimit:4;stroke-opacity:1;stroke-dasharray:none"
       d="m 326.04363,219.73798 11.24602,0.003 -0.0351,45.02087 67.4884,0.0773 -0.0336,11.25208 90.02342,0.13769 0.003,-11.246 71.98676,0.11006 0.0718,-44.99635 6.75381,3.8e-4 0.1437,-89.99264 -6.75371,-5.8e-4 0.0718,-44.99636 -71.98675,-0.11009 -0.003,-11.27681 -89.98658,-0.113 L 405,84.8597 l -67.49455,-0.10792 -0.0718,44.99636 -11.24601,-0.003 -0.1438,89.99266 z"
       id="path4482"
       inkscape:connector-curvature="0" />
    <path
       inkscape:connector-curvature="0"
       id="path4494"
       d="m 1001.7234,782.0851 -89.98502,-0.5421 -0.0792,11.2459 -44.98937,-0.2864 -0.41415,67.4872 -11.25203,-0.049 -0.54204,89.985 11.24581,0.079 -0.45097,72.01 44.99567,0.2557 -0.0487,6.7536 90.0156,0.5484 0.042,-6.7231 44.9957,0.2557 0.4446,-71.9793 11.252,0.048 0.542,-89.985 -11.2458,-0.079 0.4143,-67.4872 -44.9894,-0.2864 0.049,-11.252 z"
       style="opacity:0.29583333;fill:#0000ff;fill-opacity:1;stroke:#0000ff;stroke-width:0.03543307;stroke-miterlimit:4;stroke-opacity:1;stroke-dasharray:none" />
    <path
       style="opacity:0.19166667;fill:#0000ff;stroke:#0000ff;stroke-width:0.03543307;stroke-linecap:butt;stroke-linejoin:miter;stroke-miterlimit:4;stroke-opacity:1;stroke-dasharray:none"
       d="m 247.5625,-50.2965 -66.71875,13.3438 2.15625,10.875 -88.25,17.625 -2.15625,-10.8438 -70.03125,14 0,11.25 0,33.75 0,11.25 11.25,0 0,90 -11.25,0 0,11.25 0,33.75 11.25,0 0,90 -11.25,0 0,135 11.25,0 0,90 -11.25,0 0,135 11.25,0 0,90 -11.25,0 0,33.75 0,11.25 11.25,0 0,90 -11.25,0 0,11.25 0,33.75 0,11.25 69.65625,13.9375 2.125,-10.7813 88.28125,17.625 -2.15625,10.8126 67.09375,13.4062 90,0 0,-11.25 90,0 0,11.25 90,0 -0.0937,-0.5312 70.625,-14.0626 -2.1875,-11.0312 88.25,-17.5938 2.21875,11.0313 66.1875,-13.1875 0,-10.875 0,-33.75 0,-11.25 -11.25,0 0,-90 11.25,0 0,-11.25 0,-33.75 -11.25,0 0,-90 11.25,0 0,-135 -11.25,0 0,-90 11.25,0 0,-135 -11.25,0 0,-90 11.25,0 0,-33.75 0,-11.25 -11.25,0 0,-90 11.25,0 0,-11.25 0,-33.75 0,-11.25 -66.1875,-13.1875 -2.21875,11.0313 -88.25,-17.5938 2.1875,-11.0312 -70.59375,-14.0626 0.0312,-0.1562 -89.96875,0 0,11.25 -90,0 0,-11.25 -90,0 z m -168.75,101.25 607.5,0 0,708.75 -607.5,0 0,-708.75 z"
       id="path4500"
       inkscape:connector-curvature="0" />
    <path
       style="opacity:0.29583333;fill:#0000ff;fill-opacity:1;stroke:#0000ff;stroke-width:0.03543307;stroke-miterlimit:4;stroke-opacity:1;stroke-dasharray:none"
       d="m 967.5,-128.8903 -11.25,0 0,-33.75 -112.5,0 0,-112.5 112.5,0 0,-33.75 -45,0 0,11.25 -90,0 0,-11.25 -45,0 0,45 -11.25,0 0,90 11.25,0 0,45 -11.25,0 0,90 11.25,0 0,135 -11.25,0 0,90 11.25,0 0,135 -11.25,0 0,90 11.25,0 0,45 -11.25,0 0,90 11.25,0 0,45 45,0 0,-11.25 90,0 0,11.25 45,0 0,-33.75 -112.5,0 0,-112.5 112.5,0 0,-33.75 11.25,0 0,-90 -11.25,0 0,-135 11.25,0 0,-90 -11.25,0 0,-135 11.25,0 0,-90 z m -56.25,219.375 c 0,15.533 -12.592,28.125 -28.125,28.125 -15.533,0 -28.125,-12.592 -28.125,-28.125 0,-15.533 12.592,-28.125 28.125,-28.125 15.533,0 28.125,12.592 28.125,28.125 z m 0,101.25 c 0,15.533 -12.592,28.125 -28.125,28.125 -15.533,0 -28.125,-12.592 -28.125,-28.125 0,-15.533 12.592,-28.125 28.125,-28.125 15.533,0 28.125,12.592 28.125,28.125 z"
       id="path4530"
       inkscape:connector-curvature="0" />
    <path
       id="path4541"
       d="m 855,-905.1403 11.25,0 0,-33.75 112.5,0 0,-112.5 -112.5,0 0,-33.75 45,0 0,11.25 90,0 0,-11.25 45,0 0,45 11.25,0 0,90 -11.25,0 0,45 11.25,0 0,90 -11.25,0 0,135 11.25,0 0,90 -11.25,0 0,135 11.25,0 0,90 -11.25,0 0,45 11.25,0 0,90 -11.25,0 0,45 -45,0 0,-11.25 -90,0 0,11.25 -45,0 0,-33.75 112.5,0 0,-112.5 -112.5,0 0,-33.75 -11.25,0 0,-90 11.25,0 0,-135 -11.25,0 0,-90 11.25,0 0,-135 -11.25,0 0,-90 z m 56.25,219.375 c 0,15.533 12.592,28.125 28.125,28.125 15.533,0 28.125,-12.592 28.125,-28.125 0,-15.533 -12.592,-28.125 -28.125,-28.125 -15.533,0 -28.125,12.592 -28.125,28.125 z m 0,101.25 c 0,15.533 12.592,28.125 28.125,28.125 15.533,0 28.125,-12.592 28.125,-28.125 0,-15.533 -12.592,-28.125 -28.125,-28.125 -15.533,0 -28.125,12.592 -28.125,28.125 z"
       style="opacity:0.29583333;fill:#0000ff;fill-opacity:1;stroke:#0000ff;stroke-width:0.03543307;stroke-miterlimit:4;stroke-opacity:1;stroke-dasharray:none"
       inkscape:connector-curvature="0" />
  </g>
</svg>
