<?xml version="1.0" encoding="UTF-8" standalone="no"?>
<!-- Created with Inkscape (http://www.inkscape.org/) -->

<svg
   xmlns:dc="http://purl.org/dc/elements/1.1/"
   xmlns:cc="http://creativecommons.org/ns#"
   xmlns:rdf="http://www.w3.org/1999/02/22-rdf-syntax-ns#"
   xmlns:svg="http://www.w3.org/2000/svg"
   xmlns="http://www.w3.org/2000/svg"
   xmlns:sodipodi="http://sodipodi.sourceforge.net/DTD/sodipodi-0.dtd"
   xmlns:inkscape="http://www.inkscape.org/namespaces/inkscape"
   width="1080"
   height="2160"
   id="svg3011"
   version="1.1"
   inkscape:version="0.48.5 r10040"
   sodipodi:docname="gforce.svg">
  <defs
     id="defs3013" />
  <sodipodi:namedview
     id="base"
     pagecolor="#ffffff"
     bordercolor="#666666"
     borderopacity="1.0"
     inkscape:pageopacity="0.0"
     inkscape:pageshadow="2"
     inkscape:zoom="0.49497475"
     inkscape:cx="1237.4987"
     inkscape:cy="1547.7178"
     inkscape:document-units="in"
     inkscape:current-layer="layer1"
     showgrid="true"
     units="in"
     inkscape:window-width="1920"
     inkscape:window-height="1035"
     inkscape:window-x="0"
     inkscape:window-y="0"
     inkscape:window-maximized="1"
     gridtolerance="10000"
     objecttolerance="20"
     guidetolerance="21">
    <inkscape:grid
       type="xygrid"
       id="grid3019"
       empspacing="8"
       visible="true"
       enabled="true"
       snapvisiblegridlinesonly="true"
       units="in"
       spacingx="0.125in"
       spacingy="0.125in"
       dotted="false" />
  </sodipodi:namedview>
  <metadata
     id="metadata3016">
    <rdf:RDF>
      <cc:Work
         rdf:about="">
        <dc:format>image/svg+xml</dc:format>
        <dc:type
           rdf:resource="http://purl.org/dc/dcmitype/StillImage" />
        <dc:title />
      </cc:Work>
    </rdf:RDF>
  </metadata>
  <g
     inkscape:label="Layer 1"
     inkscape:groupmode="layer"
     id="layer1"
     transform="translate(0,1107.6403)">
    <rect
       style="opacity:0.44833332;fill:#ff0000;fill-opacity:1;stroke:#0000ff;stroke-width:0.03543307;stroke-miterlimit:4;stroke-opacity:1;stroke-dasharray:none"
       id="rect3042-8"
       width="425.19684"
       height="212.59842"
       x="1260"
       y="-1500.2386" />
    <path
       style="opacity:0.44833332;fill:#0000ff;fill-opacity:1;stroke:#0000ff;stroke-width:0.03543307;stroke-miterlimit:4;stroke-opacity:1;stroke-dasharray:none"
       d="m 1203.75,51.1097 0,90.00002 180,0 0,-90.00002 -180,0 z m 39.375,16.875 c 15.533,0 28.125,12.592 28.125,28.125 0,15.53303 -12.592,28.12502 -28.125,28.12502 -15.533,0 -28.125,-12.59199 -28.125,-28.12502 0,-15.533 12.592,-28.125 28.125,-28.125 z m 101.25,0 c 15.533,0 28.125,12.592 28.125,28.125 0,15.53303 -12.592,28.12502 -28.125,28.12502 -15.533,0 -28.125,-12.59199 -28.125,-28.12502 0,-15.533 12.592,-28.125 28.125,-28.125 z"
       id="rect3044-4"
       inkscape:connector-curvature="0" />
    <rect
       style="opacity:0.44833332;fill:#ff0000;fill-opacity:1;stroke:#0000ff;stroke-width:0.03543307;stroke-miterlimit:4;stroke-opacity:1;stroke-dasharray:none"
       id="rect3042-8-9"
       width="425.19684"
       height="212.59842"
       x="1901.25"
       y="-453.98871" />
    <rect
       style="opacity:0.44833332;fill:#ff0000;fill-opacity:1;stroke:#0000ff;stroke-width:0.03543307;stroke-miterlimit:4;stroke-opacity:1;stroke-dasharray:none"
       id="rect3042-9-2-7"
       width="425.19684"
       height="212.59842"
       x="1914.8032"
       y="-150.23872" />
    <rect
       style="opacity:0.44833332;fill:#ffcc00;fill-opacity:1;stroke:#0000ff;stroke-width:0.03543307;stroke-miterlimit:4;stroke-opacity:1;stroke-dasharray:none"
       id="rect3119-00"
       width="90"
       height="180"
       x="2700"
       y="-1107.6403" />
    <rect
       style="opacity:0.44833332;fill:#ffcc00;fill-opacity:1;stroke:#0000ff;stroke-width:0.03543307;stroke-miterlimit:4;stroke-opacity:1;stroke-dasharray:none"
       id="rect3119-0-0"
       width="90"
       height="180"
       x="2790"
       y="-837.64032" />
    <rect
       style="opacity:0.44833332;fill:#ff0000;fill-opacity:1;stroke:#0000ff;stroke-width:0.03543307;stroke-miterlimit:4;stroke-opacity:1;stroke-dasharray:none"
       id="rect3042-8-7"
       width="425.19684"
       height="212.59842"
       x="1903.5532"
       y="-1432.7386" />
    <path
       sodipodi:type="arc"
       style="opacity:0.44833332;fill:#ff6600;fill-opacity:1;stroke:#0000ff;stroke-width:0.03543307;stroke-miterlimit:4;stroke-opacity:1;stroke-dasharray:none"
       id="path3208"
       sodipodi:cx="1181.25"
       sodipodi:cy="11.25"
       sodipodi:rx="11.25"
       sodipodi:ry="11.25"
       d="m 1192.5,11.25 c 0,6.213203 -5.0368,11.25 -11.25,11.25 -6.2132,0 -11.25,-5.036797 -11.25,-11.25 0,-6.2132034 5.0368,-11.25 11.25,-11.25 6.2132,0 11.25,5.0367966 11.25,11.25 z"
       transform="translate(1507.5,-1208.8903)" />
    <path
       style="opacity:0.19166667;fill:#0000ff;stroke:#0000ff;stroke-width:0.03543307;stroke-linecap:butt;stroke-linejoin:miter;stroke-miterlimit:4;stroke-opacity:1;stroke-dasharray:none"
       d="M 135 45 L 121.8125 111.1875 L 132.84375 113.40625 L 115.25 201.65625 L 104.21875 199.46875 L 90.15625 270.0625 L 90 270.03125 L 90 360 L 101.25 360 L 101.25 450 L 90 450 L 90 540 L 103.34375 606.71875 L 114.21875 604.5625 L 131.84375 692.8125 L 121 694.96875 L 135 765 L 146.25 765 L 180 765 L 292.5 765 L 326.25 765 L 326.25 753.75 L 416.25 753.75 L 416.25 765 L 551.25 765 L 551.25 753.75 L 641.25 753.75 L 641.25 765 L 776.25 765 L 776.25 753.75 L 866.25 753.75 L 866.25 765 L 900 765 L 1012.5 765 L 1046.25 765 L 1057.5 765 L 1071.4375 695.34375 L 1060.6562 693.21875 L 1078.2812 604.9375 L 1089.0938 607.09375 L 1102.5 540 L 1102.5 450 L 1091.25 450 L 1091.25 360 L 1102.5 360 L 1102.5 270 L 1101.9688 270.09375 L 1087.9062 199.46875 L 1076.875 201.65625 L 1059.2812 113.40625 L 1070.3125 111.1875 L 1057.125 45 L 1046.25 45 L 1012.5 45 L 900 45 L 866.25 45 L 866.25 56.25 L 776.25 56.25 L 776.25 45 L 641.25 45 L 641.25 56.25 L 551.25 56.25 L 551.25 45 L 416.25 45 L 416.25 56.25 L 326.25 56.25 L 326.25 45 L 292.5 45 L 180 45 L 146.25 45 L 135 45 z M 157.5 112.5 C 163.7132 112.5 168.75 117.5368 168.75 123.75 C 168.75 129.9632 163.7132 135 157.5 135 C 151.2868 135 146.25 129.9632 146.25 123.75 C 146.25 117.5368 151.2868 112.5 157.5 112.5 z M 315 112.5 C 321.2132 112.5 326.25 117.5368 326.25 123.75 C 326.25 129.9632 321.2132 135 315 135 C 308.7868 135 303.75 129.9632 303.75 123.75 C 303.75 117.5368 308.7868 112.5 315 112.5 z M 877.5 112.5 C 883.7132 112.5 888.75 117.5368 888.75 123.75 C 888.75 129.9632 883.7132 135 877.5 135 C 871.2868 135 866.25 129.9632 866.25 123.75 C 866.25 117.5368 871.2868 112.5 877.5 112.5 z M 1035 112.5 C 1041.2132 112.5 1046.25 117.5368 1046.25 123.75 C 1046.25 129.9632 1041.2132 135 1035 135 C 1028.7868 135 1023.75 129.9632 1023.75 123.75 C 1023.75 117.5368 1028.7868 112.5 1035 112.5 z M 157.5 180 C 163.7132 180 168.75 185.0368 168.75 191.25 C 168.75 197.4632 163.7132 202.5 157.5 202.5 C 151.2868 202.5 146.25 197.4632 146.25 191.25 C 146.25 185.0368 151.2868 180 157.5 180 z M 315 180 C 321.2132 180 326.25 185.0368 326.25 191.25 C 326.25 197.4632 321.2132 202.5 315 202.5 C 308.7868 202.5 303.75 197.4632 303.75 191.25 C 303.75 185.0368 308.7868 180 315 180 z M 877.5 180 C 883.7132 180 888.75 185.0368 888.75 191.25 C 888.75 197.4632 883.7132 202.5 877.5 202.5 C 871.2868 202.5 866.25 197.4632 866.25 191.25 C 866.25 185.0368 871.2868 180 877.5 180 z M 1035 180 C 1041.2132 180 1046.25 185.0368 1046.25 191.25 C 1046.25 197.4632 1041.2132 202.5 1035 202.5 C 1028.7868 202.5 1023.75 197.4632 1023.75 191.25 C 1023.75 185.0368 1028.7868 180 1035 180 z M 157.5 607.5 C 163.7132 607.5 168.75 612.5368 168.75 618.75 C 168.75 624.9632 163.7132 630 157.5 630 C 151.2868 630 146.25 624.9632 146.25 618.75 C 146.25 612.5368 151.2868 607.5 157.5 607.5 z M 315 607.5 C 321.2132 607.5 326.25 612.5368 326.25 618.75 C 326.25 624.9632 321.2132 630 315 630 C 308.7868 630 303.75 624.9632 303.75 618.75 C 303.75 612.5368 308.7868 607.5 315 607.5 z M 877.5 607.5 C 883.7132 607.5 888.75 612.5368 888.75 618.75 C 888.75 624.9632 883.7132 630 877.5 630 C 871.2868 630 866.25 624.9632 866.25 618.75 C 866.25 612.5368 871.2868 607.5 877.5 607.5 z M 1035 607.5 C 1041.2132 607.5 1046.25 612.5368 1046.25 618.75 C 1046.25 624.9632 1041.2132 630 1035 630 C 1028.7868 630 1023.75 624.9632 1023.75 618.75 C 1023.75 612.5368 1028.7868 607.5 1035 607.5 z M 157.5 675 C 163.7132 675 168.75 680.0368 168.75 686.25 C 168.75 692.4632 163.7132 697.5 157.5 697.5 C 151.2868 697.5 146.25 692.4632 146.25 686.25 C 146.25 680.0368 151.2868 675 157.5 675 z M 315 675 C 321.2132 675 326.25 680.0368 326.25 686.25 C 326.25 692.4632 321.2132 697.5 315 697.5 C 308.7868 697.5 303.75 692.4632 303.75 686.25 C 303.75 680.0368 308.7868 675 315 675 z M 877.5 675 C 883.7132 675 888.75 680.0368 888.75 686.25 C 888.75 692.4632 883.7132 697.5 877.5 697.5 C 871.2868 697.5 866.25 692.4632 866.25 686.25 C 866.25 680.0368 871.2868 675 877.5 675 z M 1035 675 C 1041.2132 675 1046.25 680.0368 1046.25 686.25 C 1046.25 692.4632 1041.2132 697.5 1035 697.5 C 1028.7868 697.5 1023.75 692.4632 1023.75 686.25 C 1023.75 680.0368 1028.7868 675 1035 675 z "
       transform="translate(0,-1107.6403)"
       id="path3117-3-6" />
    <path
       style="opacity:0.29583333;fill:#0000ff;fill-opacity:1;stroke:#0000ff;stroke-width:0.03543307;stroke-miterlimit:4;stroke-opacity:1;stroke-dasharray:none"
       d="m -438.75,-843.2653 0,90 -11.25,0 0,90 11.25,0 0,90 45,0 0,-11.25 90,0 0,11.25 45,0 0,-90 11.25,0 0,-90 -11.25,0 0,-90 -45,0 0,11.25 -90,0 0,-11.25 -45,0 z m 106.875,56.25 c 15.53301,0 28.125,12.59199 28.125,28.125 0,15.53301 -12.59199,28.125 -28.125,28.125 -15.53301,0 -28.125,-12.59199 -28.125,-28.125 0,-15.53301 12.59199,-28.125 28.125,-28.125 z m 0,101.25 c 15.53301,0 28.125,12.59199 28.125,28.125 0,15.53301 -12.59199,28.125 -28.125,28.125 -15.53301,0 -28.125,-12.59199 -28.125,-28.125 0,-15.53301 12.59199,-28.125 28.125,-28.125 z"
       id="rect4025"
       inkscape:connector-curvature="0" />
    <path
       style="opacity:0.29583333;fill:#0000ff;fill-opacity:1;stroke:#0000ff;stroke-width:0.03543307;stroke-miterlimit:4;stroke-opacity:1;stroke-dasharray:none"
       d="m 324.22969,-208.8852 0,11.25 -33.75,0 0,112.500002 -112.5,0 0,-112.500002 -33.75,0 0,45 11.25,0 0,90.000002 -11.25,0 0,45 900.00001,0 0,-45 -11.25,0 0,-90.000002 11.25,0 0,-45 -33.75,0 0,112.500002 -112.50001,0 0,-112.500002 -33.75,0 0,-11.25 -90,0 0,11.25 -135,0 0,-11.25 -90,0 0,11.25 -135,0 0,-11.25 -90,0 z m 219.375,56.25 c 15.53301,0 28.125,12.59199 28.125,28.125 0,15.53301 -12.59199,28.125002 -28.125,28.125002 -15.53301,0 -28.125,-12.591992 -28.125,-28.125002 0,-15.53301 12.59199,-28.125 28.125,-28.125 z m 101.25,0 c 15.53301,0 28.125,12.59199 28.125,28.125 0,15.53301 -12.59199,28.125002 -28.125,28.125002 -15.53301,0 -28.125,-12.591992 -28.125,-28.125002 0,-15.53301 12.59199,-28.125 28.125,-28.125 z"
       id="path4349"
       inkscape:connector-curvature="0" />
    <path
       style="opacity:0.29583333;fill:#0000ff;fill-opacity:1;stroke:#0000ff;stroke-width:0.03543307;stroke-miterlimit:4;stroke-opacity:1;stroke-dasharray:none"
       d="m 1442.1429,-834.78316 0,90 -11.25,0 0,90 11.25,0 0,90 45,0 0,-11.25 90,0 0,11.25 45,0 0,-90 11.25,0 0,-90 -11.25,0 0,-90 -45,0 0,11.25 -90,0 0,-11.25 -45,0 z"
       id="rect4385"
       inkscape:connector-curvature="0" />
    <path
       inkscape:connector-curvature="0"
       id="path4468"
       d="m -1631.25,-1051.3903 -45,225 0,90 11.25,0 0,90 -11.25,0 0,90 45,225 11.25,0 33.75,0 112.5,0 33.75,0 0,-11.25 90,0 0,11.25 135,0 0,-11.25 90,0 0,11.25 135,0 0,-11.25 90,0 0,11.25 33.75,0 112.5,0 33.75,0 11.25,0 45,-225 0,-90 -11.25,0 0,-90 11.25,0 0,-90 -45,-225 -11.25,0 -33.75,0 -112.5,0 -33.75,0 0,11.25 -90,0 0,-11.25 -135,0 0,11.25 -90,0 0,-11.25 -135,0 0,11.25 -90,0 0,-11.25 -33.75,0 -112.5,0 -33.75,0 -11.25,0 z m 22.5,67.5 c 6.2132,0 11.25,5.0368 11.25,11.25 0,6.2132 -5.0368,11.25 -11.25,11.25 -6.2132,0 -11.25,-5.0368 -11.25,-11.25 0,-6.2132 5.0368,-11.25 11.25,-11.25 z m 157.5,0 c 6.2132,0 11.25,5.0368 11.25,11.25 0,6.2132 -5.0368,11.25 -11.25,11.25 -6.2132,0 -11.25,-5.0368 -11.25,-11.25 0,-6.2132 5.0368,-11.25 11.25,-11.25 z m 562.5,0 c 6.2132,0 11.25,5.0368 11.25,11.25 0,6.2132 -5.0368,11.25 -11.25,11.25 -6.2132,0 -11.25,-5.0368 -11.25,-11.25 0,-6.2132 5.0368,-11.25 11.25,-11.25 z m 157.5,0 c 6.2132,0 11.25,5.0368 11.25,11.25 0,6.2132 -5.0368,11.25 -11.25,11.25 -6.2132,0 -11.25,-5.0368 -11.25,-11.25 0,-6.2132 5.0368,-11.25 11.25,-11.25 z m -877.5,67.5 c 6.2132,0 11.25,5.0368 11.25,11.25 0,6.2132 -5.0368,11.25 -11.25,11.25 -6.2132,0 -11.25,-5.0368 -11.25,-11.25 0,-6.2132 5.0368,-11.25 11.25,-11.25 z m 157.5,0 c 6.2132,0 11.25,5.0368 11.25,11.25 0,6.2132 -5.0368,11.25 -11.25,11.25 -6.2132,0 -11.25,-5.0368 -11.25,-11.25 0,-6.2132 5.0368,-11.25 11.25,-11.25 z m 562.5,0 c 6.2132,0 11.25,5.0368 11.25,11.25 0,6.2132 -5.0368,11.25 -11.25,11.25 -6.2132,0 -11.25,-5.0368 -11.25,-11.25 0,-6.2132 5.0368,-11.25 11.25,-11.25 z m 157.5,0 c 6.2132,0 11.25,5.0368 11.25,11.25 0,6.2132 -5.0368,11.25 -11.25,11.25 -6.2132,0 -11.25,-5.0368 -11.25,-11.25 0,-6.2132 5.0368,-11.25 11.25,-11.25 z m -877.5,427.5 c 6.2132,0 11.25,5.0368 11.25,11.25 0,6.2132 -5.0368,11.25 -11.25,11.25 -6.2132,0 -11.25,-5.0368 -11.25,-11.25 0,-6.2132 5.0368,-11.25 11.25,-11.25 z m 157.5,0 c 6.2132,0 11.25,5.0368 11.25,11.25 0,6.2132 -5.0368,11.25 -11.25,11.25 -6.2132,0 -11.25,-5.0368 -11.25,-11.25 0,-6.2132 5.0368,-11.25 11.25,-11.25 z m 562.5,0 c 6.2132,0 11.25,5.0368 11.25,11.25 0,6.2132 -5.0368,11.25 -11.25,11.25 -6.2132,0 -11.25,-5.0368 -11.25,-11.25 0,-6.2132 5.0368,-11.25 11.25,-11.25 z m 157.5,0 c 6.2132,0 11.25,5.0368 11.25,11.25 0,6.2132 -5.0368,11.25 -11.25,11.25 -6.2132,0 -11.25,-5.0368 -11.25,-11.25 0,-6.2132 5.0368,-11.25 11.25,-11.25 z m -877.5,67.5 c 6.2132,0 11.25,5.0368 11.25,11.25 0,6.2132 -5.0368,11.25 -11.25,11.25 -6.2132,0 -11.25,-5.0368 -11.25,-11.25 0,-6.2132 5.0368,-11.25 11.25,-11.25 z m 157.5,0 c 6.2132,0 11.25,5.0368 11.25,11.25 0,6.2132 -5.0368,11.25 -11.25,11.25 -6.2132,0 -11.25,-5.0368 -11.25,-11.25 0,-6.2132 5.0368,-11.25 11.25,-11.25 z m 562.5,0 c 6.2132,0 11.25,5.0368 11.25,11.25 0,6.2132 -5.0368,11.25 -11.25,11.25 -6.2132,0 -11.25,-5.0368 -11.25,-11.25 0,-6.2132 5.0368,-11.25 11.25,-11.25 z m 157.5,0 c 6.2132,0 11.25,5.0368 11.25,11.25 0,6.2132 -5.0368,11.25 -11.25,11.25 -6.2132,0 -11.25,-5.0368 -11.25,-11.25 0,-6.2132 5.0368,-11.25 11.25,-11.25 z"
       style="opacity:0.19166667;fill:#0000ff;stroke:#0000ff;stroke-width:0.03543307;stroke-linecap:butt;stroke-linejoin:miter;stroke-miterlimit:4;stroke-opacity:1;stroke-dasharray:none" />
    <path
       inkscape:connector-curvature="0"
       id="path4470"
       d="m -1271.25,-202.0153 0,11.25 -33.75,0 0,112.5 -112.5,0 0,-112.5 -33.75,0 0,45 11.25,0 0,90 -11.25,0 0,45 900,0 0,-45 -11.25,0 0,-90 11.25,0 0,-45 -33.75,0 0,112.5 -112.5,0 0,-112.5 -33.75,0 0,-11.25 -90,0 0,11.25 -135,0 0,-11.25 -90,0 0,11.25 -135,0 0,-11.25 -90,0 z m 219.375,56.25 c 15.533,0 28.125,12.59199 28.125,28.125 0,15.53301 -12.592,28.125 -28.125,28.125 -15.533,0 -28.125,-12.59199 -28.125,-28.125 0,-15.53301 12.592,-28.125 28.125,-28.125 z m 101.25,0 c 15.53301,0 28.125,12.59199 28.125,28.125 0,15.53301 -12.59199,28.125 -28.125,28.125 -15.53301,0 -28.125,-12.59199 -28.125,-28.125 0,-15.53301 12.59199,-28.125 28.125,-28.125 z"
       style="opacity:0.29583333;fill:#0000ff;fill-opacity:1;stroke:#0000ff;stroke-width:0.03543307;stroke-miterlimit:4;stroke-opacity:1;stroke-dasharray:none" />
    <path
       inkscape:connector-curvature="0"
       id="path4472"
       d="m -378.97733,-471.93432 2.20213,11.03236 -44.12947,8.80851 13.21277,66.19421 -11.03237,2.20212 17.61703,88.25895 11.03236,-2.20213 14.09362,70.60715 44.12947,-8.80851 1.32128,6.61942 88.25894,-17.61702 -1.32128,-6.61942 44.12947,-8.80851 -14.09362,-70.60715 11.03237,-2.20213 -17.61702,-88.25894 -11.03237,2.20212 -13.21277,-66.1942 -44.12947,8.80851 -2.20213,-11.03236 -88.25894,17.61702 z m 69.48654,32.01776 c 15.23252,-3.0405 30.04573,6.84308 33.08624,22.0756 3.0405,15.23252 -6.84308,30.04573 -22.0756,33.08624 -15.23252,3.04051 -30.04574,-6.84307 -33.08624,-22.0756 -3.04051,-15.23252 6.84308,-30.04573 22.0756,-33.08624 z m 19.81915,99.29131 c 15.23252,-3.0405 30.04573,6.84307 33.08624,22.0756 3.0405,15.23252 -6.84308,30.04573 -22.0756,33.08624 -15.23252,3.0405 -30.04574,-6.84308 -33.08624,-22.0756 -3.0405,-15.23253 6.84308,-30.04573 22.0756,-33.08624 z"
       style="opacity:0.29583333;fill:#0000ff;fill-opacity:1;stroke:#0000ff;stroke-width:0.03543307;stroke-miterlimit:4;stroke-opacity:1;stroke-dasharray:none" />
    <path
       inkscape:connector-curvature="0"
       id="path4477"
       d="m -309.91131,-1187.9541 -2.19795,11.0331 -44.13281,-8.7917 -13.18754,66.1992 -11.0332,-2.1979 -17.58339,88.2656 11.0332,2.198 -14.06671,70.6125 44.13282,8.79169 -1.31875,6.61992 88.26564,17.58339 1.31876,-6.61992 44.13282,8.7917 14.06671,-70.61252 11.03319,2.19796 17.58343,-88.26562 -11.03322,-2.1981 13.18755,-66.1992 -44.13286,-8.7916 2.19794,-11.0332 -88.26563,-17.5833 z m 51.89091,56.2213 c 15.23368,3.0346 25.1229,17.8442 22.08821,33.0778 -3.03469,15.2337 -17.84412,25.1229 -33.0778,22.0882 -15.23367,-3.0347 -25.1229,-17.8441 -22.08821,-33.0778 3.03468,-15.2337 17.84413,-25.1229 33.0778,-22.0882 z m -19.7813,99.2988 c 15.23369,3.0348 25.12289,17.8442 22.08821,33.07787 -3.0347,15.23367 -17.84414,25.1229 -33.07782,22.08821 -15.23368,-3.03471 -25.12292,-17.84415 -22.0882,-33.07788 3.03469,-15.2337 17.84413,-25.1229 33.07781,-22.0882 z"
       style="opacity:0.29583333;fill:#0000ff;fill-opacity:1;stroke:#0000ff;stroke-width:0.03543307;stroke-miterlimit:4;stroke-opacity:1;stroke-dasharray:none" />
    <path
       style="opacity:0.29583333;fill:#0000ff;fill-opacity:1;stroke:#0000ff;stroke-width:0.03543307;stroke-miterlimit:4;stroke-opacity:1;stroke-dasharray:none"
       d="m 1525.159,-493.5153 -2.1875,11.03125 -44.1562,-8.78125 -13.1876,66.1875 -11.0312,-2.21875 -17.625,88.28125 11.0312,2.1875 -14.0937,70.59375 44.125,8.8125 -1.3125,6.625 88.25,17.625 1.3125,-6.625 44.125,8.8125 14.0937,-70.59375 11.0626,2.1875 17.5937,-88.25 -11.0313,-2.21875 13.2188,-66.1875 -44.125,-8.8125 2.1875,-11.03125 -88.25,-17.625 z"
       id="path4482"
       inkscape:connector-curvature="0" />
    <path
       inkscape:connector-curvature="0"
       id="path4494"
       d="m 1542.875,-1142.4729 -88.25,17.5937 2.1875,11.0313 -44.125,8.7812 13.1875,66.1875 -11.0312,2.2188 17.5937,88.24996 11.0313,-2.1875 14.0624,70.625 44.125,-8.8125 1.3126,6.625 88.2812,-17.59375 -1.3125,-6.59375 44.125,-8.8125 -14.0625,-70.59375 11.0312,-2.21875 -17.5937,-88.24996 -11.0313,2.1875 -13.1874,-66.1875 -44.125,8.7812 -2.2188,-11.0312 z"
       style="opacity:0.29583333;fill:#0000ff;fill-opacity:1;stroke:#0000ff;stroke-width:0.03543307;stroke-miterlimit:4;stroke-opacity:1;stroke-dasharray:none" />
  </g>
</svg>
