<?xml version="1.0" encoding="UTF-8" standalone="no"?>
<!-- Created with Inkscape (http://www.inkscape.org/) -->

<svg
   xmlns:dc="http://purl.org/dc/elements/1.1/"
   xmlns:cc="http://creativecommons.org/ns#"
   xmlns:rdf="http://www.w3.org/1999/02/22-rdf-syntax-ns#"
   xmlns:svg="http://www.w3.org/2000/svg"
   xmlns="http://www.w3.org/2000/svg"
   xmlns:sodipodi="http://sodipodi.sourceforge.net/DTD/sodipodi-0.dtd"
   xmlns:inkscape="http://www.inkscape.org/namespaces/inkscape"
   width="2160"
   height="1080"
   id="svg2"
   version="1.1"
   inkscape:version="0.48.5 r10040"
   sodipodi:docname="gforce2.svg">
  <defs
     id="defs4" />
  <sodipodi:namedview
     id="base"
     pagecolor="#ffffff"
     bordercolor="#666666"
     borderopacity="1.0"
     inkscape:pageopacity="0.0"
     inkscape:pageshadow="2"
     inkscape:zoom="0.87357151"
     inkscape:cx="804.60646"
     inkscape:cy="1036.1058"
     inkscape:document-units="in"
     inkscape:current-layer="layer1"
     showgrid="true"
     units="in"
     inkscape:window-width="1440"
     inkscape:window-height="799"
     inkscape:window-x="0"
     inkscape:window-y="0"
     inkscape:window-maximized="1">
    <inkscape:grid
       type="xygrid"
       id="grid2985"
       empspacing="8"
       visible="true"
       enabled="true"
       snapvisiblegridlinesonly="true"
       units="in"
       spacingx="0.125in"
       spacingy="0.125in"
       dotted="false" />
  </sodipodi:namedview>
  <metadata
     id="metadata7">
    <rdf:RDF>
      <cc:Work
         rdf:about="">
        <dc:format>image/svg+xml</dc:format>
        <dc:type
           rdf:resource="http://purl.org/dc/dcmitype/StillImage" />
        <dc:title />
      </cc:Work>
    </rdf:RDF>
  </metadata>
  <g
     inkscape:label="Layer 1"
     inkscape:groupmode="layer"
     id="layer1"
     transform="translate(0,27.6378)">
    <path
       style="fill:#cbb0f0;fill-opacity:1;stroke:#000000;stroke-width:1px;stroke-linecap:butt;stroke-linejoin:miter;stroke-opacity:1"
       d="M 180 90 L 90 360 L 90 630 L 180 900 L 225 900 L 337.5 900 L 360 900 L 360 888.75 L 450 888.75 L 450 900 L 585 900 L 585 888.75 L 675 888.75 L 675 900 L 810 900 L 810 888.75 L 900 888.75 L 900 900 L 933.75 900 L 1046.25 900 L 1080 900 L 1170 630 L 1170 360 L 1080 90 L 1046.25 90 L 933.75 90 L 900 90 L 900 101.25 L 810 101.25 L 810 90 L 675 90 L 675 101.25 L 585 101.25 L 585 90 L 450 90 L 450 101.25 L 360 101.25 L 360 90 L 337.5 90 L 225 90 L 180 90 z M 202.5 213.75 C 208.7132 213.75 213.75 218.7868 213.75 225 C 213.75 231.2132 208.7132 236.25 202.5 236.25 C 196.2868 236.25 191.25 231.2132 191.25 225 C 191.25 218.7868 196.2868 213.75 202.5 213.75 z M 337.5 213.75 C 343.7132 213.75 348.75 218.7868 348.75 225 C 348.75 231.2132 343.7132 236.25 337.5 236.25 C 331.2868 236.25 326.25 231.2132 326.25 225 C 326.25 218.7868 331.2868 213.75 337.5 213.75 z M 922.5 213.75 C 928.7132 213.75 933.75 218.7868 933.75 225 C 933.75 231.2132 928.7132 236.25 922.5 236.25 C 916.2868 236.25 911.25 231.2132 911.25 225 C 911.25 218.7868 916.2868 213.75 922.5 213.75 z M 1057.5 213.75 C 1063.7132 213.75 1068.75 218.7868 1068.75 225 C 1068.75 231.2132 1063.7132 236.25 1057.5 236.25 C 1051.2868 236.25 1046.25 231.2132 1046.25 225 C 1046.25 218.7868 1051.2868 213.75 1057.5 213.75 z M 202.5 753.75 C 208.7132 753.75 213.75 758.7868 213.75 765 C 213.75 771.2132 208.7132 776.25 202.5 776.25 C 196.2868 776.25 191.25 771.2132 191.25 765 C 191.25 758.7868 196.2868 753.75 202.5 753.75 z M 337.5 753.75 C 343.7132 753.75 348.75 758.7868 348.75 765 C 348.75 771.2132 343.7132 776.25 337.5 776.25 C 331.2868 776.25 326.25 771.2132 326.25 765 C 326.25 758.7868 331.2868 753.75 337.5 753.75 z M 922.5 753.75 C 928.7132 753.75 933.75 758.7868 933.75 765 C 933.75 771.2132 928.7132 776.25 922.5 776.25 C 916.2868 776.25 911.25 771.2132 911.25 765 C 911.25 758.7868 916.2868 753.75 922.5 753.75 z M 1057.5 753.75 C 1063.7132 753.75 1068.75 758.7868 1068.75 765 C 1068.75 771.2132 1063.7132 776.25 1057.5 776.25 C 1051.2868 776.25 1046.25 771.2132 1046.25 765 C 1046.25 758.7868 1051.2868 753.75 1057.5 753.75 z "
       transform="translate(0,-27.6378)"
       id="path3782" />
    <g
       id="g10611"
       transform="translate(-1018.125,596.25)"
       style="fill:#cbb0e9;fill-opacity:1">
      <path
         sodipodi:type="arc"
         style="fill:#cbb0e9;fill-opacity:1;stroke:#f80000;stroke-width:0.89999998;stroke-miterlimit:4;stroke-opacity:0.98222219;stroke-dasharray:none"
         id="path10613"
         sodipodi:cx="601.875"
         sodipodi:cy="-331.875"
         sodipodi:rx="28.125"
         sodipodi:ry="28.125"
         d="m 630,-331.875 a 28.125,28.125 0 1 1 -56.25,0 28.125,28.125 0 1 1 56.25,0 z"
         transform="matrix(1.2,0,0,1.2,-126,44.3622)" />
      <path
         transform="matrix(1.2,0,0,1.2,-30.375,44.3622)"
         d="m 630,-331.875 a 28.125,28.125 0 1 1 -56.25,0 28.125,28.125 0 1 1 56.25,0 z"
         sodipodi:ry="28.125"
         sodipodi:rx="28.125"
         sodipodi:cy="-331.875"
         sodipodi:cx="601.875"
         id="path10615"
         style="fill:#cbb0e9;fill-opacity:1;stroke:#f80000;stroke-width:0.89999998;stroke-miterlimit:4;stroke-opacity:0.98222219;stroke-dasharray:none"
         sodipodi:type="arc" />
    </g>
    <g
       style="fill:#cbb0e9;fill-opacity:1"
       transform="translate(-1018.125,596.25)"
       id="g10617">
      <path
         transform="matrix(1.2,0,0,1.2,-126,44.3622)"
         d="m 630,-331.875 a 28.125,28.125 0 1 1 -56.25,0 28.125,28.125 0 1 1 56.25,0 z"
         sodipodi:ry="28.125"
         sodipodi:rx="28.125"
         sodipodi:cy="-331.875"
         sodipodi:cx="601.875"
         id="path10619"
         style="fill:#cbb0e9;fill-opacity:1;stroke:#f80000;stroke-width:0.89999998;stroke-miterlimit:4;stroke-opacity:0.98222219;stroke-dasharray:none"
         sodipodi:type="arc" />
      <path
         sodipodi:type="arc"
         style="fill:#cbb0e9;fill-opacity:1;stroke:#f80000;stroke-width:0.89999998;stroke-miterlimit:4;stroke-opacity:0.98222219;stroke-dasharray:none"
         id="path10621"
         sodipodi:cx="601.875"
         sodipodi:cy="-331.875"
         sodipodi:rx="28.125"
         sodipodi:ry="28.125"
         d="m 630,-331.875 a 28.125,28.125 0 1 1 -56.25,0 28.125,28.125 0 1 1 56.25,0 z"
         transform="matrix(1.2,0,0,1.2,-30.375,44.3622)" />
    </g>
    <path
       style="fill:#cbb045;fill-opacity:1;stroke:#f80000;stroke-width:0.89999998;stroke-miterlimit:4;stroke-opacity:0.98222219;stroke-dasharray:none"
       d="M 213.75 -146.25 L 213.75 -135 L 180 -135 L 180 45 L 213.75 45 L 213.75 -67.5 L 326.25 -67.5 L 326.25 45 L 360 45 L 360 56.25 L 450 56.25 L 450 45 L 585 45 L 585 56.25 L 675 56.25 L 675 45 L 810 45 L 810 56.25 L 900 56.25 L 900 45 L 933.75 45 L 933.75 -67.5 L 1046.25 -67.5 L 1046.25 45 L 1080 45 L 1080 -135 L 1046.25 -135 L 1046.25 -146.25 L 933.75 -146.25 L 933.75 -135 L 326.25 -135 L 326.25 -146.25 L 213.75 -146.25 z "
       transform="translate(0,-27.6378)"
       id="rect10677" />
    <rect
       style="fill:#4eb045;fill-opacity:1;stroke:#f80000;stroke-width:0.89999998;stroke-miterlimit:4;stroke-opacity:0.98222219;stroke-dasharray:none"
       id="rect10679"
       width="90"
       height="180"
       x="225"
       y="62.362202" />
    <rect
       y="62.362202"
       x="945"
       height="180"
       width="90"
       id="rect10681"
       style="fill:#4eb045;fill-opacity:1;stroke:#f80000;stroke-width:0.89999998;stroke-miterlimit:4;stroke-opacity:0.98222219;stroke-dasharray:none" />
    <path
       style="fill:#cbb0f0;fill-opacity:1;stroke:#000000;stroke-width:1px;stroke-linecap:butt;stroke-linejoin:miter;stroke-opacity:1"
       d="M 180 -978.75 L 90 -708.75 L 90 -438.75 L 180 -168.75 L 225 -168.75 L 315 -168.75 L 337.5 -168.75 L 360 -168.75 L 450 -168.75 L 585 -168.75 L 675 -168.75 L 810 -168.75 L 900 -168.75 L 990 -168.75 L 1046.25 -168.75 L 1080 -168.75 L 1170 -438.75 L 1170 -708.75 L 1080 -978.75 L 1046.25 -978.75 L 945 -978.75 L 900 -978.75 L 810 -978.75 L 675 -978.75 L 585 -978.75 L 450 -978.75 L 360 -978.75 L 337.5 -978.75 L 315 -978.75 L 225 -978.75 L 180 -978.75 z "
       transform="translate(0,-27.6378)"
       id="path10695" />
  </g>
</svg>
