<?xml version="1.0" encoding="UTF-8" standalone="no"?>
<!-- Created with Inkscape (http://www.inkscape.org/) -->

<svg
   xmlns:dc="http://purl.org/dc/elements/1.1/"
   xmlns:cc="http://creativecommons.org/ns#"
   xmlns:rdf="http://www.w3.org/1999/02/22-rdf-syntax-ns#"
   xmlns:svg="http://www.w3.org/2000/svg"
   xmlns="http://www.w3.org/2000/svg"
   xmlns:sodipodi="http://sodipodi.sourceforge.net/DTD/sodipodi-0.dtd"
   xmlns:inkscape="http://www.inkscape.org/namespaces/inkscape"
   width="1080"
   height="2160"
   id="svg3011"
   version="1.1"
   inkscape:version="0.48.5 r10040"
   sodipodi:docname="gforce.svg">
  <defs
     id="defs3013" />
  <sodipodi:namedview
     id="base"
     pagecolor="#ffffff"
     bordercolor="#666666"
     borderopacity="1.0"
     inkscape:pageopacity="0.0"
     inkscape:pageshadow="2"
     inkscape:zoom="0.175"
     inkscape:cx="657.59097"
     inkscape:cy="457.30047"
     inkscape:document-units="in"
     inkscape:current-layer="layer1"
     showgrid="true"
     units="in"
     inkscape:window-width="1920"
     inkscape:window-height="1035"
     inkscape:window-x="0"
     inkscape:window-y="0"
     inkscape:window-maximized="1"
     gridtolerance="10000"
     objecttolerance="20"
     guidetolerance="21">
    <inkscape:grid
       type="xygrid"
       id="grid3019"
       empspacing="8"
       visible="true"
       enabled="true"
       snapvisiblegridlinesonly="true"
       units="in"
       spacingx="0.125in"
       spacingy="0.125in"
       dotted="false" />
  </sodipodi:namedview>
  <metadata
     id="metadata3016">
    <rdf:RDF>
      <cc:Work
         rdf:about="">
        <dc:format>image/svg+xml</dc:format>
        <dc:type
           rdf:resource="http://purl.org/dc/dcmitype/StillImage" />
        <dc:title />
      </cc:Work>
    </rdf:RDF>
  </metadata>
  <g
     inkscape:label="Layer 1"
     inkscape:groupmode="layer"
     id="layer1"
     transform="translate(0,1107.6403)">
    <path
       style="opacity:0.19166667;fill:#0000ff;stroke:#0000ff;stroke-width:0.03543307;stroke-linecap:butt;stroke-linejoin:miter;stroke-miterlimit:4;stroke-opacity:1;stroke-dasharray:none"
       d="m 78.75,-1073.8903 -13.1875,66.1875 11.03125,2.2187 L 59,-917.23405 l -11.03125,-2.1875 -14.0625,70.59375 -0.15625,-0.0312 0,89.96875 11.25,0 0,90 -11.25,0 0,90 13.34375,66.71875 10.875,-2.15625 17.625,88.25 -10.84375,2.15625 14,70.03125 11.25,0 33.75,0 112.5,0 33.75,0 0,-11.25 90,0 0,11.25 135,0 0,-11.25 90,0 0,11.25 135,0 0,-11.25 90,0 0,11.25 33.75,0 112.5,0 33.75,0 11.25,0 13.9375,-69.65625 -10.7813,-2.125 17.625,-88.28125 10.8126,2.15625 13.4062,-67.09375 0,-90 -11.25,0 0,-90 11.25,0 0,-90 -0.5312,0.0937 -14.0626,-70.625 -11.0312,2.1875 -17.5938,-88.25005 11.0313,-2.2187 -13.1875,-66.1875 -10.875,0 -33.75,0 -112.5,0 -33.75,0 0,11.25 -90,0 0,-11.25 -135,0 0,11.25 -90,0 0,-11.25 -135,0 0,11.25 -90,0 0,-11.25 -33.75,0 -112.5,0 -33.75,0 -11.25,0 z m 22.5,67.5 c 6.2132,0 11.25,5.0368 11.25,11.25 0,6.2132 -5.0368,11.25 -11.25,11.25 -6.2132,0 -11.25,-5.0368 -11.25,-11.25 0,-6.2132 5.0368,-11.25 11.25,-11.25 z m 157.5,0 c 6.2132,0 11.25,5.0368 11.25,11.25 0,6.2132 -5.0368,11.25 -11.25,11.25 -6.2132,0 -11.25,-5.0368 -11.25,-11.25 0,-6.2132 5.0368,-11.25 11.25,-11.25 z m 562.5,0 c 6.2132,0 11.25,5.0368 11.25,11.25 0,6.2132 -5.0368,11.25 -11.25,11.25 -6.2132,0 -11.25,-5.0368 -11.25,-11.25 0,-6.2132 5.0368,-11.25 11.25,-11.25 z m 157.5,0 c 6.2132,0 11.25,5.0368 11.25,11.25 0,6.2132 -5.0368,11.25 -11.25,11.25 -6.2132,0 -11.25,-5.0368 -11.25,-11.25 0,-6.2132 5.0368,-11.25 11.25,-11.25 z m -877.5,67.5 c 6.2132,0 11.25,5.0368 11.25,11.25 0,6.2132 -5.0368,11.25 -11.25,11.25 -6.2132,0 -11.25,-5.0368 -11.25,-11.25 0,-6.2132 5.0368,-11.25 11.25,-11.25 z m 157.5,0 c 6.2132,0 11.25,5.0368 11.25,11.25 0,6.2132 -5.0368,11.25 -11.25,11.25 -6.2132,0 -11.25,-5.0368 -11.25,-11.25 0,-6.2132 5.0368,-11.25 11.25,-11.25 z m 562.5,0 c 6.2132,0 11.25,5.0368 11.25,11.25 0,6.2132 -5.0368,11.25 -11.25,11.25 -6.2132,0 -11.25,-5.0368 -11.25,-11.25 0,-6.2132 5.0368,-11.25 11.25,-11.25 z m 157.5,0 c 6.2132,0 11.25,5.0368 11.25,11.25 0,6.2132 -5.0368,11.25 -11.25,11.25 -6.2132,0 -11.25,-5.0368 -11.25,-11.25 0,-6.2132 5.0368,-11.25 11.25,-11.25 z m -877.5,427.5 c 6.2132,0 11.25,5.0368 11.25,11.25 0,6.2132 -5.0368,11.25 -11.25,11.25 -6.2132,0 -11.25,-5.0368 -11.25,-11.25 0,-6.2132 5.0368,-11.25 11.25,-11.25 z m 157.5,0 c 6.2132,0 11.25,5.0368 11.25,11.25 0,6.2132 -5.0368,11.25 -11.25,11.25 -6.2132,0 -11.25,-5.0368 -11.25,-11.25 0,-6.2132 5.0368,-11.25 11.25,-11.25 z m 562.5,0 c 6.2132,0 11.25,5.0368 11.25,11.25 0,6.2132 -5.0368,11.25 -11.25,11.25 -6.2132,0 -11.25,-5.0368 -11.25,-11.25 0,-6.2132 5.0368,-11.25 11.25,-11.25 z m 157.5,0 c 6.2132,0 11.25,5.0368 11.25,11.25 0,6.2132 -5.0368,11.25 -11.25,11.25 -6.2132,0 -11.25,-5.0368 -11.25,-11.25 0,-6.2132 5.0368,-11.25 11.25,-11.25 z m -877.5,67.5 c 6.2132,0 11.25,5.0368 11.25,11.25 0,6.2132 -5.0368,11.25 -11.25,11.25 -6.2132,0 -11.25,-5.0368 -11.25,-11.25 0,-6.2132 5.0368,-11.25 11.25,-11.25 z m 157.5,0 c 6.2132,0 11.25,5.0368 11.25,11.25 0,6.2132 -5.0368,11.25 -11.25,11.25 -6.2132,0 -11.25,-5.0368 -11.25,-11.25 0,-6.2132 5.0368,-11.25 11.25,-11.25 z m 562.5,0 c 6.2132,0 11.25,5.0368 11.25,11.25 0,6.2132 -5.0368,11.25 -11.25,11.25 -6.2132,0 -11.25,-5.0368 -11.25,-11.25 0,-6.2132 5.0368,-11.25 11.25,-11.25 z m 157.5,0 c 6.2132,0 11.25,5.0368 11.25,11.25 0,6.2132 -5.0368,11.25 -11.25,11.25 -6.2132,0 -11.25,-5.0368 -11.25,-11.25 0,-6.2132 5.0368,-11.25 11.25,-11.25 z"
       id="path3117-3-6"
       inkscape:connector-curvature="0" />
    <path
       style="opacity:0.29583333;fill:#0000ff;fill-opacity:1;stroke:#0000ff;stroke-width:0.03543307;stroke-miterlimit:4;stroke-opacity:1;stroke-dasharray:none"
       d="m -438.75,-843.2653 0,90 -11.25,0 0,90 11.25,0 0,90 45,0 0,-11.25 90,0 0,11.25 45,0 0,-90 11.25,0 0,-90 -11.25,0 0,-90 -45,0 0,11.25 -90,0 0,-11.25 -45,0 z m 106.875,56.25 c 15.53301,0 28.125,12.59199 28.125,28.125 0,15.53301 -12.59199,28.125 -28.125,28.125 -15.53301,0 -28.125,-12.59199 -28.125,-28.125 0,-15.53301 12.59199,-28.125 28.125,-28.125 z m 0,101.25 c 15.53301,0 28.125,12.59199 28.125,28.125 0,15.53301 -12.59199,28.125 -28.125,28.125 -15.53301,0 -28.125,-12.59199 -28.125,-28.125 0,-15.53301 12.59199,-28.125 28.125,-28.125 z"
       id="rect4025"
       inkscape:connector-curvature="0" />
    <path
       style="opacity:0.29583333;fill:#0000ff;fill-opacity:1;stroke:#0000ff;stroke-width:0.03543307;stroke-miterlimit:4;stroke-opacity:1;stroke-dasharray:none"
       d="m 1442.1429,-834.78316 0,90 -11.25,0 0,90 11.25,0 0,90 45,0 0,-11.25 90,0 0,11.25 45,0 0,-90 11.25,0 0,-90 -11.25,0 0,-90 -45,0 0,11.25 -90,0 0,-11.25 -45,0 z"
       id="rect4385"
       inkscape:connector-curvature="0" />
    <path
       inkscape:connector-curvature="0"
       id="path4472"
       d="m -378.97733,-471.93432 2.20213,11.03236 -44.12947,8.80851 13.21277,66.19421 -11.03237,2.20212 17.61703,88.25895 11.03236,-2.20213 14.09362,70.60715 44.12947,-8.80851 1.32128,6.61942 88.25894,-17.61702 -1.32128,-6.61942 44.12947,-8.80851 -14.09362,-70.60715 11.03237,-2.20213 -17.61702,-88.25894 -11.03237,2.20212 -13.21277,-66.1942 -44.12947,8.80851 -2.20213,-11.03236 -88.25894,17.61702 z m 69.48654,32.01776 c 15.23252,-3.0405 30.04573,6.84308 33.08624,22.0756 3.0405,15.23252 -6.84308,30.04573 -22.0756,33.08624 -15.23252,3.04051 -30.04574,-6.84307 -33.08624,-22.0756 -3.04051,-15.23252 6.84308,-30.04573 22.0756,-33.08624 z m 19.81915,99.29131 c 15.23252,-3.0405 30.04573,6.84307 33.08624,22.0756 3.0405,15.23252 -6.84308,30.04573 -22.0756,33.08624 -15.23252,3.0405 -30.04574,-6.84308 -33.08624,-22.0756 -3.0405,-15.23253 6.84308,-30.04573 22.0756,-33.08624 z"
       style="opacity:0.29583333;fill:#0000ff;fill-opacity:1;stroke:#0000ff;stroke-width:0.03543307;stroke-miterlimit:4;stroke-opacity:1;stroke-dasharray:none" />
    <path
       inkscape:connector-curvature="0"
       id="path4477"
       d="m -309.91131,-1187.9541 -2.19795,11.0331 -44.13281,-8.7917 -13.18754,66.1992 -11.0332,-2.1979 -17.58339,88.2656 11.0332,2.198 -14.06671,70.6125 44.13282,8.79169 -1.31875,6.61992 88.26564,17.58339 1.31876,-6.61992 44.13282,8.7917 14.06671,-70.61252 11.03319,2.19796 17.58343,-88.26562 -11.03322,-2.1981 13.18755,-66.1992 -44.13286,-8.7916 2.19794,-11.0332 -88.26563,-17.5833 z m 51.89091,56.2213 c 15.23368,3.0346 25.1229,17.8442 22.08821,33.0778 -3.03469,15.2337 -17.84412,25.1229 -33.0778,22.0882 -15.23367,-3.0347 -25.1229,-17.8441 -22.08821,-33.0778 3.03468,-15.2337 17.84413,-25.1229 33.0778,-22.0882 z m -19.7813,99.2988 c 15.23369,3.0348 25.12289,17.8442 22.08821,33.07787 -3.0347,15.23367 -17.84414,25.1229 -33.07782,22.08821 -15.23368,-3.03471 -25.12292,-17.84415 -22.0882,-33.07788 3.03469,-15.2337 17.84413,-25.1229 33.07781,-22.0882 z"
       style="opacity:0.29583333;fill:#0000ff;fill-opacity:1;stroke:#0000ff;stroke-width:0.03543307;stroke-miterlimit:4;stroke-opacity:1;stroke-dasharray:none" />
    <path
       style="opacity:0.29583333;fill:#0000ff;fill-opacity:1;stroke:#0000ff;stroke-width:0.03543307;stroke-miterlimit:4;stroke-opacity:1;stroke-dasharray:none"
       d="m 1525.159,-493.5153 -2.1875,11.03125 -44.1562,-8.78125 -13.1876,66.1875 -11.0312,-2.21875 -17.625,88.28125 11.0312,2.1875 -14.0937,70.59375 44.125,8.8125 -1.3125,6.625 88.25,17.625 1.3125,-6.625 44.125,8.8125 14.0937,-70.59375 11.0626,2.1875 17.5937,-88.25 -11.0313,-2.21875 13.2188,-66.1875 -44.125,-8.8125 2.1875,-11.03125 -88.25,-17.625 z"
       id="path4482"
       inkscape:connector-curvature="0" />
    <path
       inkscape:connector-curvature="0"
       id="path4494"
       d="m 1542.875,-1142.4729 -88.25,17.5937 2.1875,11.0313 -44.125,8.7812 13.1875,66.1875 -11.0312,2.2188 17.5937,88.24996 11.0313,-2.1875 14.0624,70.625 44.125,-8.8125 1.3126,6.625 88.2812,-17.59375 -1.3125,-6.59375 44.125,-8.8125 -14.0625,-70.59375 11.0312,-2.21875 -17.5937,-88.24996 -11.0313,2.1875 -13.1874,-66.1875 -44.125,8.7812 -2.2188,-11.0312 z"
       style="opacity:0.29583333;fill:#0000ff;fill-opacity:1;stroke:#0000ff;stroke-width:0.03543307;stroke-miterlimit:4;stroke-opacity:1;stroke-dasharray:none" />
    <path
       style="opacity:0.19166667;fill:#0000ff;stroke:#0000ff;stroke-width:0.03543307;stroke-linecap:butt;stroke-linejoin:miter;stroke-miterlimit:4;stroke-opacity:1;stroke-dasharray:none"
       d="M 78.75 1361.25 L 65.5625 1427.4375 L 76.59375 1429.6562 L 59 1517.9062 L 47.96875 1515.7188 L 33.90625 1586.3125 L 33.75 1586.2812 L 33.75 1676.25 L 45 1676.25 L 45 1766.25 L 33.75 1766.25 L 33.75 1856.25 L 47.09375 1922.9688 L 57.96875 1920.8125 L 75.59375 2009.0625 L 64.75 2011.2188 L 78.75 2081.25 L 90 2081.25 L 123.75 2081.25 L 135 2081.25 L 135 2070 L 225 2070 L 225 2081.25 L 236.25 2081.25 L 270 2081.25 L 270 2070 L 360 2070 L 360 2081.25 L 495 2081.25 L 495 2070 L 585 2070 L 585 2081.25 L 720 2081.25 L 720 2070 L 810 2070 L 810 2081.25 L 843.75 2081.25 L 855 2081.25 L 855 2070 L 945 2070 L 945 2081.25 L 956.25 2081.25 L 990 2081.25 L 1001.25 2081.25 L 1015.1875 2011.5938 L 1004.4062 2009.4688 L 1022.0312 1921.1875 L 1032.8438 1923.3438 L 1046.25 1856.25 L 1046.25 1766.25 L 1035 1766.25 L 1035 1676.25 L 1046.25 1676.25 L 1046.25 1586.25 L 1045.7188 1586.3438 L 1031.6562 1515.7188 L 1020.625 1517.9062 L 1003.0312 1429.6562 L 1014.0625 1427.4375 L 1000.875 1361.25 L 990 1361.25 L 956.25 1361.25 L 945 1361.25 L 945 1372.5 L 855 1372.5 L 855 1361.25 L 843.75 1361.25 L 810 1361.25 L 810 1372.5 L 720 1372.5 L 720 1361.25 L 585 1361.25 L 585 1372.5 L 495 1372.5 L 495 1361.25 L 360 1361.25 L 360 1372.5 L 270 1372.5 L 270 1361.25 L 236.25 1361.25 L 225 1361.25 L 225 1372.5 L 135 1372.5 L 135 1361.25 L 123.75 1361.25 L 90 1361.25 L 78.75 1361.25 z "
       transform="translate(0,-1107.6403)"
       id="path4500" />
    <path
       style="opacity:0.29583333;fill:#0000ff;fill-opacity:1;stroke:#0000ff;stroke-width:0.03543307;stroke-miterlimit:4;stroke-opacity:1;stroke-dasharray:none"
       d="M 270 1068.75 L 270 1080 L 236.25 1080 L 236.25 1192.5 L 123.75 1192.5 L 123.75 1080 L 90 1080 L 90 1125 L 101.25 1125 L 101.25 1215 L 90 1215 L 90 1260 L 135 1260 L 135 1271.25 L 225 1271.25 L 225 1260 L 270 1260 L 270 1271.25 L 360 1271.25 L 360 1260 L 495 1260 L 495 1271.25 L 585 1271.25 L 585 1260 L 720 1260 L 720 1271.25 L 810 1271.25 L 810 1260 L 855 1260 L 855 1271.25 L 945 1271.25 L 945 1260 L 990 1260 L 990 1215 L 978.75 1215 L 978.75 1125 L 990 1125 L 990 1080 L 956.25 1080 L 956.25 1192.5 L 843.75 1192.5 L 843.75 1080 L 810 1080 L 810 1068.75 L 720 1068.75 L 720 1080 L 585 1080 L 585 1068.75 L 495 1068.75 L 495 1080 L 360 1080 L 360 1068.75 L 270 1068.75 z M 489.375 1125 C 504.908 1125 517.5 1137.592 517.5 1153.125 C 517.5 1168.658 504.908 1181.25 489.375 1181.25 C 473.842 1181.25 461.25 1168.658 461.25 1153.125 C 461.25 1137.592 473.842 1125 489.375 1125 z M 590.625 1125 C 606.158 1125 618.75 1137.592 618.75 1153.125 C 618.75 1168.658 606.158 1181.25 590.625 1181.25 C 575.092 1181.25 562.5 1168.658 562.5 1153.125 C 562.5 1137.592 575.092 1125 590.625 1125 z "
       transform="translate(0,-1107.6403)"
       id="path4530" />
    <path
       id="path4541"
       d="m 270,-72.6403 0,-11.25 -33.75,0 0,-112.5 -112.5,0 0,112.5 -33.75,0 0,-45 11.25,0 0,-90 -11.25,0 0,-45 45,0 0,-11.25 90,0 0,11.25 45,0 0,-11.25 90,0 0,11.25 135,0 0,-11.25 90,0 0,11.25 135,0 0,-11.25 90,0 0,11.25 45,0 0,-11.25 90,0 0,11.25 45,0 0,45 -11.25,0 0,90 11.25,0 0,45 -33.75,0 0,-112.5 -112.5,0 0,112.5 -33.75,0 0,11.25 -90,0 0,-11.25 -135,0 0,11.25 -90,0 0,-11.25 -135,0 0,11.25 -90,0 z m 219.375,-56.25 c 15.533,0 28.125,-12.592 28.125,-28.125 0,-15.533 -12.592,-28.125 -28.125,-28.125 -15.533,0 -28.125,12.592 -28.125,28.125 0,15.533 12.592,28.125 28.125,28.125 z m 101.25,0 c 15.533,0 28.125,-12.592 28.125,-28.125 0,-15.533 -12.592,-28.125 -28.125,-28.125 -15.533,0 -28.125,12.592 -28.125,28.125 0,15.533 12.592,28.125 28.125,28.125 z"
       style="opacity:0.29583333;fill:#0000ff;fill-opacity:1;stroke:#0000ff;stroke-width:0.03543307;stroke-miterlimit:4;stroke-opacity:1;stroke-dasharray:none"
       inkscape:connector-curvature="0" />
  </g>
</svg>
