<?xml version="1.0" encoding="UTF-8" standalone="no"?>
<!-- Created with Inkscape (http://www.inkscape.org/) -->

<svg
   xmlns:dc="http://purl.org/dc/elements/1.1/"
   xmlns:cc="http://creativecommons.org/ns#"
   xmlns:rdf="http://www.w3.org/1999/02/22-rdf-syntax-ns#"
   xmlns:svg="http://www.w3.org/2000/svg"
   xmlns="http://www.w3.org/2000/svg"
   xmlns:sodipodi="http://sodipodi.sourceforge.net/DTD/sodipodi-0.dtd"
   xmlns:inkscape="http://www.inkscape.org/namespaces/inkscape"
   width="1080"
   height="2160"
   id="svg3011"
   version="1.1"
   inkscape:version="0.48.5 r10040"
   sodipodi:docname="gforce.svg">
  <defs
     id="defs3013" />
  <sodipodi:namedview
     id="base"
     pagecolor="#ffffff"
     bordercolor="#666666"
     borderopacity="1.0"
     inkscape:pageopacity="0.0"
     inkscape:pageshadow="2"
     inkscape:zoom="1.4"
     inkscape:cx="402.34442"
     inkscape:cy="827.2989"
     inkscape:document-units="in"
     inkscape:current-layer="layer1"
     showgrid="true"
     units="in"
     inkscape:window-width="1440"
     inkscape:window-height="793"
     inkscape:window-x="0"
     inkscape:window-y="0"
     inkscape:window-maximized="1"
     gridtolerance="10000"
     objecttolerance="20"
     guidetolerance="21">
    <inkscape:grid
       type="xygrid"
       id="grid3019"
       empspacing="16"
       visible="true"
       enabled="true"
       snapvisiblegridlinesonly="true"
       units="in"
       spacingx="0.0625in"
       spacingy="0.0625in"
       dotted="false" />
  </sodipodi:namedview>
  <metadata
     id="metadata3016">
    <rdf:RDF>
      <cc:Work
         rdf:about="">
        <dc:format>image/svg+xml</dc:format>
        <dc:type
           rdf:resource="http://purl.org/dc/dcmitype/StillImage" />
        <dc:title />
      </cc:Work>
    </rdf:RDF>
  </metadata>
  <g
     inkscape:label="Layer 1"
     inkscape:groupmode="layer"
     id="layer1"
     transform="translate(0,1107.6403)">
    <path
       style="opacity:0.19166667;fill:#0000ff;stroke:#0000ff;stroke-width:0.03543307;stroke-linecap:butt;stroke-linejoin:miter;stroke-miterlimit:4;stroke-opacity:1;stroke-dasharray:none"
       d="m 742.5,-1040.1403 -66.1875,-13.1875 -2.2187,11.0312 -88.25005,-17.5937 2.1875,-11.0313 -70.59375,-14.0625 0.0312,-0.1562 -89.96875,0 0,11.25 -90,0 0,-11.25 -90,0 -66.71875,13.3437 2.15625,10.875 -88.25,17.625 -2.15625,-10.8437 -70.03122,14 0,11.25 0,33.74999 0,112.50001 0,33.75 11.25,0 0,90 -11.25,0 0,135 11.25,0 0,90 -11.25,0 0,135 11.25,0 0,90 -11.25,0 0,33.75 0,112.5 0,33.75 0,11.25 69.65622,13.9375 2.125,-10.7813 88.28125,17.625 -2.15625,10.8126 67.09375,13.4062 90,0 0,-11.25 90,0 0,11.25 90,0 -0.0937,-0.5312 70.625,-14.0626 -2.1875,-11.0312 88.25005,-17.5938 2.2187,11.0313 66.1875,-13.1875 0,-10.875 0,-33.75 0,-112.5 0,-33.75 -11.25,0 0,-90 11.25,0 0,-135 -11.25,0 0,-90 11.25,0 0,-135 -11.25,0 0,-90 11.25,0 0,-33.75 0,-112.50001 0,-33.74999 0,-11.25 z m -67.5,22.5 c 0,6.2132 -5.0368,11.25 -11.25,11.25 -6.2132,0 -11.25,-5.0368 -11.25,-11.25 0,-6.2132 5.0368,-11.25 11.25,-11.25 6.2132,0 11.25,5.0368 11.25,11.25 z m 0,157.5 c 0,6.2132 -5.0368,11.25 -11.25,11.25 -6.2132,0 -11.25,-5.0368 -11.25,-11.25 0,-6.21321 5.0368,-11.25 11.25,-11.25 6.2132,0 11.25,5.03679 11.25,11.25 z m 0,562.5 c 0,6.21319 -5.0368,11.25 -11.25,11.25 -6.2132,0 -11.25,-5.03681 -11.25,-11.25 0,-6.2132 5.0368,-11.25 11.25,-11.25 6.2132,0 11.25,5.0368 11.25,11.25 z m 0,157.5 c 0,6.21319 -5.0368,11.25 -11.25,11.25 -6.2132,0 -11.25,-5.03681 -11.25,-11.25 0,-6.2132 5.0368,-11.25 11.25,-11.25 6.2132,0 11.25,5.0368 11.25,11.25 z m -67.5,-877.5 c 0,6.2132 -5.0368,11.25 -11.25,11.25 -6.2132,0 -11.25,-5.0368 -11.25,-11.25 0,-6.2132 5.0368,-11.25 11.25,-11.25 6.2132,0 11.25,5.0368 11.25,11.25 z m 0,157.5 c 0,6.2132 -5.0368,11.25 -11.25,11.25 -6.2132,0 -11.25,-5.0368 -11.25,-11.25 0,-6.21321 5.0368,-11.25 11.25,-11.25 6.2132,0 11.25,5.03679 11.25,11.25 z m 0,562.5 c 0,6.21319 -5.0368,11.25 -11.25,11.25 -6.2132,0 -11.25,-5.03681 -11.25,-11.25 0,-6.2132 5.0368,-11.25 11.25,-11.25 6.2132,0 11.25,5.0368 11.25,11.25 z m 0,157.5 c 0,6.21319 -5.0368,11.25 -11.25,11.25 -6.2132,0 -11.25,-5.03681 -11.25,-11.25 0,-6.2132 5.0368,-11.25 11.25,-11.25 6.2132,0 11.25,5.0368 11.25,11.25 z m -427.5,-877.5 c 0,6.2132 -5.0368,11.25 -11.25,11.25 -6.2132,0 -11.25,-5.0368 -11.25,-11.25 0,-6.2132 5.0368,-11.25 11.25,-11.25 6.2132,0 11.25,5.0368 11.25,11.25 z m 0,157.5 c 0,6.2132 -5.0368,11.25 -11.25,11.25 -6.2132,0 -11.25,-5.0368 -11.25,-11.25 0,-6.21321 5.0368,-11.25 11.25,-11.25 6.2132,0 11.25,5.03679 11.25,11.25 z m 0,562.5 c 0,6.21319 -5.0368,11.25 -11.25,11.25 -6.2132,0 -11.25,-5.03681 -11.25,-11.25 0,-6.2132 5.0368,-11.25 11.25,-11.25 6.2132,0 11.25,5.0368 11.25,11.25 z m 0,157.5 c 0,6.21319 -5.0368,11.25 -11.25,11.25 -6.2132,0 -11.25,-5.03681 -11.25,-11.25 0,-6.2132 5.0368,-11.25 11.25,-11.25 6.2132,0 11.25,5.0368 11.25,11.25 z m -67.5,-877.5 c 0,6.2132 -5.0368,11.25 -11.25,11.25 -6.2132,0 -11.25003,-5.0368 -11.25003,-11.25 0,-6.2132 5.03683,-11.25 11.25003,-11.25 6.2132,0 11.25,5.0368 11.25,11.25 z m 0,157.5 c 0,6.2132 -5.0368,11.25 -11.25,11.25 -6.2132,0 -11.25003,-5.0368 -11.25003,-11.25 0,-6.21321 5.03683,-11.25 11.25003,-11.25 6.2132,0 11.25,5.03679 11.25,11.25 z m 0,562.5 c 0,6.21319 -5.0368,11.25 -11.25,11.25 -6.2132,0 -11.25003,-5.03681 -11.25003,-11.25 0,-6.2132 5.03683,-11.25 11.25003,-11.25 6.2132,0 11.25,5.0368 11.25,11.25 z m 0,157.5 c 0,6.21319 -5.0368,11.25 -11.25,11.25 -6.2132,0 -11.25003,-5.03681 -11.25003,-11.25 0,-6.2132 5.03683,-11.25 11.25003,-11.25 6.2132,0 11.25,5.0368 11.25,11.25 z"
       id="path3117-3-6"
       inkscape:connector-curvature="0" />
    <path
       style="opacity:0.29583333;fill:#0000ff;fill-opacity:1;stroke:#0000ff;stroke-width:0.03543307;stroke-miterlimit:4;stroke-opacity:1;stroke-dasharray:none"
       d="M 450 1170 L 450 1260 L 438.75 1260 L 438.75 1350 L 450 1350 L 450 1440 L 495 1440 L 495 1428.75 L 585 1428.75 L 585 1440 L 630 1440 L 630 1350 L 641.25 1350 L 641.25 1260 L 630 1260 L 630 1170 L 585 1170 L 585 1181.25 L 495 1181.25 L 495 1170 L 450 1170 z M 579.375 1226.5312 C 596.38588 1226.5312 610.1875 1240.3016 610.1875 1257.3125 C 610.1875 1274.3234 596.38588 1288.125 579.375 1288.125 C 562.36412 1288.125 548.5625 1274.3234 548.5625 1257.3125 C 548.5625 1240.3016 562.36412 1226.5313 579.375 1226.5312 z M 579.375 1321.875 C 596.38588 1321.875 610.1875 1335.6766 610.1875 1352.6875 C 610.1875 1369.6984 596.38588 1383.4688 579.375 1383.4688 C 562.36412 1383.4688 548.5625 1369.6984 548.5625 1352.6875 C 548.5625 1335.6766 562.36412 1321.875 579.375 1321.875 z "
       transform="translate(0,-1107.6403)"
       id="rect4385" />
    <path
       style="opacity:0.29583333;fill:#0000ff;fill-opacity:1;stroke:#0000ff;stroke-width:0.03543307;stroke-miterlimit:4;stroke-opacity:1;stroke-dasharray:none"
       d="M 180.375 1199.0938 L 180.375 1210.3438 L 135.34375 1210.3125 L 135.28125 1277.7812 L 124.03125 1277.75 L 123.875 1367.7812 L 135.125 1367.7812 L 135 1439.7812 L 180 1439.8438 L 180 1428.8125 L 270 1428.8125 L 270 1440 L 315 1440.0625 L 315.125 1368.0625 L 326.375 1368.0625 L 326.5 1278.0938 L 315.25 1278.0625 L 315.34375 1210.5625 L 270.34375 1210.5 L 270.375 1199.25 L 180.375 1199.0938 z M 264.375 1243.4062 C 281.38588 1243.4062 295.1875 1257.1766 295.1875 1274.1875 C 295.1875 1291.1984 281.38588 1305 264.375 1305 C 247.36412 1305 233.5625 1291.1984 233.5625 1274.1875 C 233.5625 1257.1766 247.36412 1243.4063 264.375 1243.4062 z M 264.375 1338.75 C 281.38588 1338.75 295.1875 1352.5516 295.1875 1369.5625 C 295.1875 1386.5734 281.38588 1400.3438 264.375 1400.3438 C 247.36412 1400.3438 233.5625 1386.5734 233.5625 1369.5625 C 233.5625 1352.5516 247.36412 1338.75 264.375 1338.75 z "
       transform="translate(0,-1107.6403)"
       id="path4482" />
    <path
       style="opacity:0.19166667;fill:#0000ff;stroke:#0000ff;stroke-width:0.03543307;stroke-linecap:butt;stroke-linejoin:miter;stroke-miterlimit:4;stroke-opacity:1;stroke-dasharray:none"
       d="m 247.5625,-50.2965 -66.71875,13.3438 2.15625,10.875 -88.25,17.625 -2.15625,-10.8438 -70.03125,14 0,11.25 0,33.75 0,11.25 11.25,0 0,90 -11.25,0 0,11.25 0,33.75 11.25,0 0,90 -11.25,0 0,135 11.25,0 0,90 -11.25,0 0,135 11.25,0 0,90 -11.25,0 0,33.75 0,11.25 11.25,0 0,90 -11.25,0 0,11.25 0,33.75 0,11.25 69.65625,13.9375 2.125,-10.7813 88.28125,17.625 -2.15625,10.8126 67.09375,13.4062 90,0 0,-11.25 90,0 0,11.25 90,0 -0.0937,-0.5312 70.625,-14.0626 -2.1875,-11.0312 88.25,-17.5938 2.21875,11.0313 66.1875,-13.1875 0,-10.875 0,-33.75 0,-11.25 -11.25,0 0,-90 11.25,0 0,-11.25 0,-33.75 -11.25,0 0,-90 11.25,0 0,-135 -11.25,0 0,-90 11.25,0 0,-135 -11.25,0 0,-90 11.25,0 0,-33.75 0,-11.25 -11.25,0 0,-90 11.25,0 0,-11.25 0,-33.75 0,-11.25 -66.1875,-13.1875 -2.21875,11.0313 -88.25,-17.5938 2.1875,-11.0312 -70.59375,-14.0626 0.0312,-0.1562 -89.96875,0 0,11.25 -90,0 0,-11.25 -90,0 z m -168.75,101.25 607.5,0 0,708.75 -607.5,0 0,-708.75 z"
       id="path4500"
       inkscape:connector-curvature="0" />
    <path
       style="opacity:0.29583333;fill:#0000ff;fill-opacity:1;stroke:#0000ff;stroke-width:0.03543307;stroke-miterlimit:4;stroke-opacity:1;stroke-dasharray:none"
       d="M 911.25 33.75 L 911.25 45 L 866.25 45 L 866.25 78.75 L 978.75 78.75 L 978.75 191.25 L 866.25 191.25 L 866.25 225 L 855 225 L 855 315 L 866.25 315 L 866.25 450 L 855 450 L 855 540 L 866.25 540 L 866.25 675 L 855 675 L 855 765 L 866.25 765 L 866.25 798.75 L 978.75 798.75 L 978.75 911.25 L 866.25 911.25 L 866.25 945 L 911.25 945 L 911.25 956.25 L 1001.25 956.25 L 1001.25 945 L 1046.25 945 L 1046.25 900 L 1057.5 900 L 1057.5 810 L 1046.25 810 L 1046.25 765 L 1057.5 765 L 1057.5 675 L 1046.25 675 L 1046.25 540 L 1057.5 540 L 1057.5 450 L 1046.25 450 L 1046.25 315 L 1057.5 315 L 1057.5 225 L 1046.25 225 L 1046.25 180 L 1057.5 180 L 1057.5 90 L 1046.25 90 L 1046.25 45 L 1001.25 45 L 1001.25 33.75 L 911.25 33.75 z M 916.875 416.53125 C 933.88588 416.53125 947.6875 430.30162 947.6875 447.3125 C 947.6875 464.32338 933.88588 478.125 916.875 478.125 C 899.86412 478.125 886.0625 464.32338 886.0625 447.3125 C 886.0625 430.30162 899.86412 416.53125 916.875 416.53125 z M 916.875 511.875 C 933.88588 511.875 947.6875 525.67662 947.6875 542.6875 C 947.6875 559.69838 933.88588 573.46875 916.875 573.46875 C 899.86412 573.46875 886.0625 559.69838 886.0625 542.6875 C 886.0625 525.67662 899.86412 511.875 916.875 511.875 z "
       transform="translate(0,-1107.6403)"
       id="path4541" />
    <path
       transform="matrix(1.8252399,0,0,1.8252399,-757.13253,-1455.5153)"
       d="m 1203.75,489.375 a 16.875,16.875 0 1 1 -33.75,0 16.875,16.875 0 1 1 33.75,0 z"
       sodipodi:ry="16.875"
       sodipodi:rx="16.875"
       sodipodi:cy="489.375"
       sodipodi:cx="1186.875"
       id="path3032"
       style="fill:#d200ff;fill-opacity:1;stroke:#0000ff;stroke-width:0.09;stroke-miterlimit:4;stroke-opacity:1;stroke-dasharray:none"
       sodipodi:type="arc" />
    <rect
       y="-626.83942"
       x="1381.0741"
       height="33.75"
       width="56.25"
       id="rect3034"
       style="fill:#d200ff;fill-opacity:1;stroke:#0000ff;stroke-width:0.07115125;stroke-miterlimit:4;stroke-opacity:1;stroke-dasharray:none" />
    <path
       sodipodi:type="arc"
       style="fill:#d200ff;fill-opacity:1;stroke:#0000ff;stroke-width:0.09;stroke-miterlimit:4;stroke-opacity:1;stroke-dasharray:none"
       id="path3036"
       sodipodi:cx="1186.875"
       sodipodi:cy="489.375"
       sodipodi:rx="16.875"
       sodipodi:ry="16.875"
       d="m 1203.75,489.375 a 16.875,16.875 0 1 1 -33.75,0 16.875,16.875 0 1 1 33.75,0 z"
       transform="matrix(1.8252399,0,0,1.8252399,-757.13253,-1550.8671)" />
  </g>
</svg>
