<?xml version="1.0" encoding="UTF-8" standalone="no"?>
<!-- Created with Inkscape (http://www.inkscape.org/) -->

<svg
   xmlns:dc="http://purl.org/dc/elements/1.1/"
   xmlns:cc="http://creativecommons.org/ns#"
   xmlns:rdf="http://www.w3.org/1999/02/22-rdf-syntax-ns#"
   xmlns:svg="http://www.w3.org/2000/svg"
   xmlns="http://www.w3.org/2000/svg"
   xmlns:sodipodi="http://sodipodi.sourceforge.net/DTD/sodipodi-0.dtd"
   xmlns:inkscape="http://www.inkscape.org/namespaces/inkscape"
   width="1080"
   height="2160"
   id="svg3011"
   version="1.1"
   inkscape:version="0.48.5 r10040"
   sodipodi:docname="gforce.svg">
  <defs
     id="defs3013" />
  <sodipodi:namedview
     id="base"
     pagecolor="#ffffff"
     bordercolor="#666666"
     borderopacity="1.0"
     inkscape:pageopacity="0.0"
     inkscape:pageshadow="2"
     inkscape:zoom="0.35"
     inkscape:cx="657.59097"
     inkscape:cy="1143.0148"
     inkscape:document-units="in"
     inkscape:current-layer="layer1"
     showgrid="true"
     units="in"
     inkscape:window-width="1920"
     inkscape:window-height="1035"
     inkscape:window-x="0"
     inkscape:window-y="0"
     inkscape:window-maximized="1"
     gridtolerance="10000"
     objecttolerance="20"
     guidetolerance="21">
    <inkscape:grid
       type="xygrid"
       id="grid3019"
       empspacing="8"
       visible="true"
       enabled="true"
       snapvisiblegridlinesonly="true"
       units="in"
       spacingx="0.125in"
       spacingy="0.125in"
       dotted="false" />
  </sodipodi:namedview>
  <metadata
     id="metadata3016">
    <rdf:RDF>
      <cc:Work
         rdf:about="">
        <dc:format>image/svg+xml</dc:format>
        <dc:type
           rdf:resource="http://purl.org/dc/dcmitype/StillImage" />
        <dc:title />
      </cc:Work>
    </rdf:RDF>
  </metadata>
  <g
     inkscape:label="Layer 1"
     inkscape:groupmode="layer"
     id="layer1"
     transform="translate(0,1107.6403)">
    <path
       style="opacity:0.19166667;fill:#0000ff;stroke:#0000ff;stroke-width:0.03543307;stroke-linecap:butt;stroke-linejoin:miter;stroke-miterlimit:4;stroke-opacity:1;stroke-dasharray:none"
       d="m 753.75,-1028.8903 -66.1875,-13.1875 -2.2187,11.0312 -88.25005,-17.5937 2.1875,-11.0313 -70.59375,-14.0625 0.0312,-0.1562 -89.96875,0 0,11.25 -90,0 0,-11.25 -90,0 -66.71875,13.3437 2.15625,10.875 -88.25,17.625 -2.15625,-10.8437 -70.03122,14 0,11.25 0,33.74999 0,112.50001 0,33.75 11.25,0 0,90 -11.25,0 0,135 11.25,0 0,90 -11.25,0 0,135 11.25,0 0,90 -11.25,0 0,33.75 0,112.5 0,33.75 0,11.25 69.65622,13.9375 2.125,-10.7813 88.28125,17.625 -2.15625,10.8126 67.09375,13.4062 90,0 0,-11.25 90,0 0,11.25 90,0 -0.0937,-0.5312 70.625,-14.0626 -2.1875,-11.0312 88.25005,-17.5938 2.2187,11.0313 66.1875,-13.1875 0,-10.875 0,-33.75 0,-112.5 0,-33.75 -11.25,0 0,-90 11.25,0 0,-135 -11.25,0 0,-90 11.25,0 0,-135 -11.25,0 0,-90 11.25,0 0,-33.75 0,-112.50001 0,-33.74999 0,-11.25 z m -67.5,22.5 c 0,6.2132 -5.0368,11.24999 -11.25,11.24999 -6.2132,0 -11.25,-5.03679 -11.25,-11.24999 0,-6.2132 5.0368,-11.25 11.25,-11.25 6.2132,0 11.25,5.0368 11.25,11.25 z m 0,157.5 c 0,6.2132 -5.0368,11.25 -11.25,11.25 -6.2132,0 -11.25,-5.0368 -11.25,-11.25 0,-6.21321 5.0368,-11.25 11.25,-11.25 6.2132,0 11.25,5.03679 11.25,11.25 z m 0,562.5 c 0,6.21319 -5.0368,11.25 -11.25,11.25 -6.2132,0 -11.25,-5.03681 -11.25,-11.25 0,-6.2132 5.0368,-11.25 11.25,-11.25 6.2132,0 11.25,5.0368 11.25,11.25 z m 0,157.5 c 0,6.21319 -5.0368,11.25 -11.25,11.25 -6.2132,0 -11.25,-5.03681 -11.25,-11.25 0,-6.2132 5.0368,-11.25 11.25,-11.25 6.2132,0 11.25,5.0368 11.25,11.25 z m -67.5,-877.5 c 0,6.2132 -5.0368,11.24999 -11.25,11.24999 -6.2132,0 -11.25,-5.03679 -11.25,-11.24999 0,-6.2132 5.0368,-11.25 11.25,-11.25 6.2132,0 11.25,5.0368 11.25,11.25 z m 0,157.5 c 0,6.2132 -5.0368,11.25 -11.25,11.25 -6.2132,0 -11.25,-5.0368 -11.25,-11.25 0,-6.21321 5.0368,-11.25 11.25,-11.25 6.2132,0 11.25,5.03679 11.25,11.25 z m 0,562.5 c 0,6.21319 -5.0368,11.25 -11.25,11.25 -6.2132,0 -11.25,-5.03681 -11.25,-11.25 0,-6.2132 5.0368,-11.25 11.25,-11.25 6.2132,0 11.25,5.0368 11.25,11.25 z m 0,157.5 c 0,6.21319 -5.0368,11.25 -11.25,11.25 -6.2132,0 -11.25,-5.03681 -11.25,-11.25 0,-6.2132 5.0368,-11.25 11.25,-11.25 6.2132,0 11.25,5.0368 11.25,11.25 z m -427.5,-877.5 c 0,6.2132 -5.0368,11.24999 -11.25,11.24999 -6.2132,0 -11.25,-5.03679 -11.25,-11.24999 0,-6.2132 5.0368,-11.25 11.25,-11.25 6.2132,0 11.25,5.0368 11.25,11.25 z m 0,157.5 c 0,6.2132 -5.0368,11.25 -11.25,11.25 -6.2132,0 -11.25,-5.0368 -11.25,-11.25 0,-6.21321 5.0368,-11.25 11.25,-11.25 6.2132,0 11.25,5.03679 11.25,11.25 z m 0,562.5 c 0,6.21319 -5.0368,11.25 -11.25,11.25 -6.2132,0 -11.25,-5.03681 -11.25,-11.25 0,-6.2132 5.0368,-11.25 11.25,-11.25 6.2132,0 11.25,5.0368 11.25,11.25 z m 0,157.5 c 0,6.21319 -5.0368,11.25 -11.25,11.25 -6.2132,0 -11.25,-5.03681 -11.25,-11.25 0,-6.2132 5.0368,-11.25 11.25,-11.25 6.2132,0 11.25,5.0368 11.25,11.25 z m -67.5,-877.5 c 0,6.2132 -5.0368,11.24999 -11.25,11.24999 -6.2132,0 -11.25003,-5.03679 -11.25003,-11.24999 0,-6.2132 5.03683,-11.25 11.25003,-11.25 6.2132,0 11.25,5.0368 11.25,11.25 z m 0,157.5 c 0,6.2132 -5.0368,11.25 -11.25,11.25 -6.2132,0 -11.25003,-5.0368 -11.25003,-11.25 0,-6.21321 5.03683,-11.25 11.25003,-11.25 6.2132,0 11.25,5.03679 11.25,11.25 z m 0,562.5 c 0,6.21319 -5.0368,11.25 -11.25,11.25 -6.2132,0 -11.25003,-5.03681 -11.25003,-11.25 0,-6.2132 5.03683,-11.25 11.25003,-11.25 6.2132,0 11.25,5.0368 11.25,11.25 z m 0,157.5 c 0,6.21319 -5.0368,11.25 -11.25,11.25 -6.2132,0 -11.25003,-5.03681 -11.25003,-11.25 0,-6.2132 5.03683,-11.25 11.25003,-11.25 6.2132,0 11.25,5.0368 11.25,11.25 z"
       id="path3117-3-6"
       inkscape:connector-curvature="0" />
    <path
       style="opacity:0.29583333;fill:#0000ff;fill-opacity:1;stroke:#0000ff;stroke-width:0.03543307;stroke-miterlimit:4;stroke-opacity:1;stroke-dasharray:none"
       d="m -438.75,-843.2653 0,90 -11.25,0 0,90 11.25,0 0,90 45,0 0,-11.25 90,0 0,11.25 45,0 0,-90 11.25,0 0,-90 -11.25,0 0,-90 -45,0 0,11.25 -90,0 0,-11.25 -45,0 z m 106.875,56.25 c 15.53301,0 28.125,12.59199 28.125,28.125 0,15.53301 -12.59199,28.125 -28.125,28.125 -15.53301,0 -28.125,-12.59199 -28.125,-28.125 0,-15.53301 12.59199,-28.125 28.125,-28.125 z m 0,101.25 c 15.53301,0 28.125,12.59199 28.125,28.125 0,15.53301 -12.59199,28.125 -28.125,28.125 -15.53301,0 -28.125,-12.59199 -28.125,-28.125 0,-15.53301 12.59199,-28.125 28.125,-28.125 z"
       id="rect4025"
       inkscape:connector-curvature="0" />
    <path
       style="opacity:0.29583333;fill:#0000ff;fill-opacity:1;stroke:#0000ff;stroke-width:0.03543307;stroke-miterlimit:4;stroke-opacity:1;stroke-dasharray:none"
       d="m 1442.1429,-834.78316 0,90 -11.25,0 0,90 11.25,0 0,90 45,0 0,-11.25 90,0 0,11.25 45,0 0,-90 11.25,0 0,-90 -11.25,0 0,-90 -45,0 0,11.25 -90,0 0,-11.25 -45,0 z"
       id="rect4385"
       inkscape:connector-curvature="0" />
    <path
       inkscape:connector-curvature="0"
       id="path4472"
       d="m -378.97733,-471.93432 2.20213,11.03236 -44.12947,8.80851 13.21277,66.19421 -11.03237,2.20212 17.61703,88.25895 11.03236,-2.20213 14.09362,70.60715 44.12947,-8.80851 1.32128,6.61942 88.25894,-17.61702 -1.32128,-6.61942 44.12947,-8.80851 -14.09362,-70.60715 11.03237,-2.20213 -17.61702,-88.25894 -11.03237,2.20212 -13.21277,-66.1942 -44.12947,8.80851 -2.20213,-11.03236 -88.25894,17.61702 z m 69.48654,32.01776 c 15.23252,-3.0405 30.04573,6.84308 33.08624,22.0756 3.0405,15.23252 -6.84308,30.04573 -22.0756,33.08624 -15.23252,3.04051 -30.04574,-6.84307 -33.08624,-22.0756 -3.04051,-15.23252 6.84308,-30.04573 22.0756,-33.08624 z m 19.81915,99.29131 c 15.23252,-3.0405 30.04573,6.84307 33.08624,22.0756 3.0405,15.23252 -6.84308,30.04573 -22.0756,33.08624 -15.23252,3.0405 -30.04574,-6.84308 -33.08624,-22.0756 -3.0405,-15.23253 6.84308,-30.04573 22.0756,-33.08624 z"
       style="opacity:0.29583333;fill:#0000ff;fill-opacity:1;stroke:#0000ff;stroke-width:0.03543307;stroke-miterlimit:4;stroke-opacity:1;stroke-dasharray:none" />
    <path
       inkscape:connector-curvature="0"
       id="path4477"
       d="m -309.91131,-1187.9541 -2.19795,11.0331 -44.13281,-8.7917 -13.18754,66.1992 -11.0332,-2.1979 -17.58339,88.2656 11.0332,2.198 -14.06671,70.6125 44.13282,8.79169 -1.31875,6.61992 88.26564,17.58339 1.31876,-6.61992 44.13282,8.7917 14.06671,-70.61252 11.03319,2.19796 17.58343,-88.26562 -11.03322,-2.1981 13.18755,-66.1992 -44.13286,-8.7916 2.19794,-11.0332 -88.26563,-17.5833 z m 51.89091,56.2213 c 15.23368,3.0346 25.1229,17.8442 22.08821,33.0778 -3.03469,15.2337 -17.84412,25.1229 -33.0778,22.0882 -15.23367,-3.0347 -25.1229,-17.8441 -22.08821,-33.0778 3.03468,-15.2337 17.84413,-25.1229 33.0778,-22.0882 z m -19.7813,99.2988 c 15.23369,3.0348 25.12289,17.8442 22.08821,33.07787 -3.0347,15.23367 -17.84414,25.1229 -33.07782,22.08821 -15.23368,-3.03471 -25.12292,-17.84415 -22.0882,-33.07788 3.03469,-15.2337 17.84413,-25.1229 33.07781,-22.0882 z"
       style="opacity:0.29583333;fill:#0000ff;fill-opacity:1;stroke:#0000ff;stroke-width:0.03543307;stroke-miterlimit:4;stroke-opacity:1;stroke-dasharray:none" />
    <path
       style="opacity:0.29583333;fill:#0000ff;fill-opacity:1;stroke:#0000ff;stroke-width:0.03543307;stroke-miterlimit:4;stroke-opacity:1;stroke-dasharray:none"
       d="m 1525.159,-493.5153 -2.1875,11.03125 -44.1562,-8.78125 -13.1876,66.1875 -11.0312,-2.21875 -17.625,88.28125 11.0312,2.1875 -14.0937,70.59375 44.125,8.8125 -1.3125,6.625 88.25,17.625 1.3125,-6.625 44.125,8.8125 14.0937,-70.59375 11.0626,2.1875 17.5937,-88.25 -11.0313,-2.21875 13.2188,-66.1875 -44.125,-8.8125 2.1875,-11.03125 -88.25,-17.625 z"
       id="path4482"
       inkscape:connector-curvature="0" />
    <path
       inkscape:connector-curvature="0"
       id="path4494"
       d="m 1542.875,-1142.4729 -88.25,17.5937 2.1875,11.0313 -44.125,8.7812 13.1875,66.1875 -11.0312,2.2188 17.5937,88.24996 11.0313,-2.1875 14.0624,70.625 44.125,-8.8125 1.3126,6.625 88.2812,-17.59375 -1.3125,-6.59375 44.125,-8.8125 -14.0625,-70.59375 11.0312,-2.21875 -17.5937,-88.24996 -11.0313,2.1875 -13.1874,-66.1875 -44.125,8.7812 -2.2188,-11.0312 z"
       style="opacity:0.29583333;fill:#0000ff;fill-opacity:1;stroke:#0000ff;stroke-width:0.03543307;stroke-miterlimit:4;stroke-opacity:1;stroke-dasharray:none" />
    <path
       style="opacity:0.19166667;fill:#0000ff;stroke:#0000ff;stroke-width:0.03543307;stroke-linecap:butt;stroke-linejoin:miter;stroke-miterlimit:4;stroke-opacity:1;stroke-dasharray:none"
       d="m 765,17.3597 -66.1875,-13.1875 -2.2187,11.0313 -88.25,-17.5938 2.1874,-11.0312 -70.5937,-14.0625 0.0313,-0.1563 -89.9688,0 0,11.25 -90,0 0,-11.25 -90,0 -66.7188,13.3438 2.1563,10.875 -88.25,17.625 -2.1563,-10.8438 -70.0312,14 0,11.25 0,33.75 0,11.25 11.25,0 0,90 -11.25,0 0,11.25 0,33.75 11.25,0 0,90 -11.25,0 0,135 11.25,0 0,90 -11.25,0 0,135 11.25,0 0,90 -11.25,0 0,33.75 0,11.25 11.25,0 0,90 -11.25,0 0,11.25 0,33.75 0,11.25 69.6562,13.9375 2.125,-10.7813 88.2813,17.625 -2.1563,10.8126 67.0938,13.4062 90,0 0,-11.25 90,0 0,11.25 90,0 -0.0938,-0.5312 70.625,-14.0626 -2.1874,-11.0312 88.25,-17.5938 2.2187,11.0313 66.1875,-13.1875 0,-10.875 0,-33.75 0,-11.25 -11.25,0 0,-90 11.25,0 0,-11.25 0,-33.75 -11.25,0 0,-90 11.25,0 0,-135 -11.25,0 0,-90 11.25,0 0,-135 -11.25,0 0,-90 11.25,0 0,-33.75 0,-11.25 -11.25,0 0,-90 11.25,0 0,-11.25 0,-33.75 0,-11.25 z"
       id="path4500"
       inkscape:connector-curvature="0" />
    <path
       style="opacity:0.29583333;fill:#0000ff;fill-opacity:1;stroke:#0000ff;stroke-width:0.03543307;stroke-miterlimit:4;stroke-opacity:1;stroke-dasharray:none"
       d="m 1001.25,62.3597 -11.25,0 0,-33.75 -112.5,0 0,-112.5 112.5,0 0,-33.75 -45,0 0,11.25 -90,0 0,-11.25 -45,0 0,45 -11.25,0 0,90 11.25,0 0,45 -11.25,0 0,90 11.25,0 0,135 -11.25,0 0,90 11.25,0 0,135 -11.25,0 0,90 11.25,0 0,45 -11.25,0 0,90 11.25,0 0,45 45,0 0,-11.25 90,0 0,11.25 45,0 0,-33.75 -112.5,0 0,-112.5 112.5,0 0,-33.75 11.25,0 0,-90 -11.25,0 0,-135 11.25,0 0,-90 -11.25,0 0,-135 11.25,0 0,-90 z M 945,281.7347 c 0,15.533 -12.592,28.125 -28.125,28.125 -15.533,0 -28.125,-12.592 -28.125,-28.125 0,-15.533 12.592,-28.125 28.125,-28.125 15.533,0 28.125,12.592 28.125,28.125 z m 0,101.25 c 0,15.533 -12.592,28.125 -28.125,28.125 -15.533,0 -28.125,-12.592 -28.125,-28.125 0,-15.533 12.592,-28.125 28.125,-28.125 15.533,0 28.125,12.592 28.125,28.125 z"
       id="path4530"
       inkscape:connector-curvature="0" />
    <path
       id="path4541"
       d="m 776.25,-893.8903 11.25,0 0,-33.75 112.5,0 0,-112.5 -112.5,0 0,-33.75 45,0 0,11.25 90,0 0,-11.25 45,0 0,45 11.25,0 0,90 -11.25,0 0,45 11.25,0 0,90 -11.25,0 0,135 11.25,0 0,90 -11.25,0 0,135 11.25,0 0,90 -11.25,0 0,45 11.25,0 0,90 -11.25,0 0,45 -45,0 0,-11.25 -90,0 0,11.25 -45,0 0,-33.75 112.5,0 0,-112.5 -112.5,0 0,-33.75 -11.25,0 0,-90 11.25,0 0,-135 -11.25,0 0,-90 11.25,0 0,-135 -11.25,0 0,-90 z m 56.25,219.375 c 0,15.533 12.592,28.125 28.125,28.125 15.533,0 28.125,-12.592 28.125,-28.125 0,-15.533 -12.592,-28.125 -28.125,-28.125 -15.533,0 -28.125,12.592 -28.125,28.125 z m 0,101.25 c 0,15.533 12.592,28.125 28.125,28.125 15.533,0 28.125,-12.592 28.125,-28.125 0,-15.533 -12.592,-28.125 -28.125,-28.125 -15.533,0 -28.125,12.592 -28.125,28.125 z"
       style="opacity:0.29583333;fill:#0000ff;fill-opacity:1;stroke:#0000ff;stroke-width:0.03543307;stroke-miterlimit:4;stroke-opacity:1;stroke-dasharray:none"
       inkscape:connector-curvature="0" />
  </g>
</svg>
