<?xml version="1.0" encoding="UTF-8" standalone="no"?>
<!-- Created with Inkscape (http://www.inkscape.org/) -->

<svg
   xmlns:dc="http://purl.org/dc/elements/1.1/"
   xmlns:cc="http://creativecommons.org/ns#"
   xmlns:rdf="http://www.w3.org/1999/02/22-rdf-syntax-ns#"
   xmlns:svg="http://www.w3.org/2000/svg"
   xmlns="http://www.w3.org/2000/svg"
   xmlns:sodipodi="http://sodipodi.sourceforge.net/DTD/sodipodi-0.dtd"
   xmlns:inkscape="http://www.inkscape.org/namespaces/inkscape"
   width="1080"
   height="2160"
   id="svg3011"
   version="1.1"
   inkscape:version="0.48.5 r10040"
   sodipodi:docname="gforce.svg">
  <defs
     id="defs3013" />
  <sodipodi:namedview
     id="base"
     pagecolor="#ffffff"
     bordercolor="#666666"
     borderopacity="1.0"
     inkscape:pageopacity="0.0"
     inkscape:pageshadow="2"
     inkscape:zoom="0.24748737"
     inkscape:cx="874.37382"
     inkscape:cy="1479.7139"
     inkscape:document-units="in"
     inkscape:current-layer="layer1"
     showgrid="true"
     units="in"
     inkscape:window-width="1440"
     inkscape:window-height="793"
     inkscape:window-x="0"
     inkscape:window-y="0"
     inkscape:window-maximized="1"
     gridtolerance="10000"
     objecttolerance="20"
     guidetolerance="21">
    <inkscape:grid
       type="xygrid"
       id="grid3019"
       empspacing="8"
       visible="true"
       enabled="true"
       snapvisiblegridlinesonly="true"
       units="in"
       spacingx="0.125in"
       spacingy="0.125in"
       dotted="false" />
  </sodipodi:namedview>
  <metadata
     id="metadata3016">
    <rdf:RDF>
      <cc:Work
         rdf:about="">
        <dc:format>image/svg+xml</dc:format>
        <dc:type
           rdf:resource="http://purl.org/dc/dcmitype/StillImage" />
        <dc:title />
      </cc:Work>
    </rdf:RDF>
  </metadata>
  <g
     inkscape:label="Layer 1"
     inkscape:groupmode="layer"
     id="layer1"
     transform="translate(0,1107.6403)">
    <path
       style="opacity:0.19166667;fill:#0000ff;stroke:#0000ff;stroke-width:0.03543307;stroke-linecap:butt;stroke-linejoin:miter;stroke-miterlimit:4;stroke-opacity:1;stroke-dasharray:none"
       d="m 742.5,-1040.1403 -66.1875,-13.1875 -2.2187,11.0312 -88.25005,-17.5937 2.1875,-11.0313 -70.59375,-14.0625 0.0312,-0.1562 -89.96875,0 0,11.25 -90,0 0,-11.25 -90,0 -66.71875,13.3437 2.15625,10.875 -88.25,17.625 -2.15625,-10.8437 -70.03122,14 0,11.25 0,33.74999 0,112.50001 0,33.75 11.25,0 0,90 -11.25,0 0,135 11.25,0 0,90 -11.25,0 0,135 11.25,0 0,90 -11.25,0 0,33.75 0,112.5 0,33.75 0,11.25 69.65622,13.9375 2.125,-10.7813 88.28125,17.625 -2.15625,10.8126 67.09375,13.4062 90,0 0,-11.25 90,0 0,11.25 90,0 -0.0937,-0.5312 70.625,-14.0626 -2.1875,-11.0312 88.25005,-17.5938 2.2187,11.0313 66.1875,-13.1875 0,-10.875 0,-33.75 0,-112.5 0,-33.75 -11.25,0 0,-90 11.25,0 0,-135 -11.25,0 0,-90 11.25,0 0,-135 -11.25,0 0,-90 11.25,0 0,-33.75 0,-112.50001 0,-33.74999 0,-11.25 z m -67.5,22.5 c 0,6.2132 -5.0368,11.25 -11.25,11.25 -6.2132,0 -11.25,-5.0368 -11.25,-11.25 0,-6.2132 5.0368,-11.25 11.25,-11.25 6.2132,0 11.25,5.0368 11.25,11.25 z m 0,157.5 c 0,6.2132 -5.0368,11.25 -11.25,11.25 -6.2132,0 -11.25,-5.0368 -11.25,-11.25 0,-6.21321 5.0368,-11.25 11.25,-11.25 6.2132,0 11.25,5.03679 11.25,11.25 z m 0,562.5 c 0,6.21319 -5.0368,11.25 -11.25,11.25 -6.2132,0 -11.25,-5.03681 -11.25,-11.25 0,-6.2132 5.0368,-11.25 11.25,-11.25 6.2132,0 11.25,5.0368 11.25,11.25 z m 0,157.5 c 0,6.21319 -5.0368,11.25 -11.25,11.25 -6.2132,0 -11.25,-5.03681 -11.25,-11.25 0,-6.2132 5.0368,-11.25 11.25,-11.25 6.2132,0 11.25,5.0368 11.25,11.25 z m -67.5,-877.5 c 0,6.2132 -5.0368,11.25 -11.25,11.25 -6.2132,0 -11.25,-5.0368 -11.25,-11.25 0,-6.2132 5.0368,-11.25 11.25,-11.25 6.2132,0 11.25,5.0368 11.25,11.25 z m 0,157.5 c 0,6.2132 -5.0368,11.25 -11.25,11.25 -6.2132,0 -11.25,-5.0368 -11.25,-11.25 0,-6.21321 5.0368,-11.25 11.25,-11.25 6.2132,0 11.25,5.03679 11.25,11.25 z m 0,562.5 c 0,6.21319 -5.0368,11.25 -11.25,11.25 -6.2132,0 -11.25,-5.03681 -11.25,-11.25 0,-6.2132 5.0368,-11.25 11.25,-11.25 6.2132,0 11.25,5.0368 11.25,11.25 z m 0,157.5 c 0,6.21319 -5.0368,11.25 -11.25,11.25 -6.2132,0 -11.25,-5.03681 -11.25,-11.25 0,-6.2132 5.0368,-11.25 11.25,-11.25 6.2132,0 11.25,5.0368 11.25,11.25 z m -427.5,-877.5 c 0,6.2132 -5.0368,11.25 -11.25,11.25 -6.2132,0 -11.25,-5.0368 -11.25,-11.25 0,-6.2132 5.0368,-11.25 11.25,-11.25 6.2132,0 11.25,5.0368 11.25,11.25 z m 0,157.5 c 0,6.2132 -5.0368,11.25 -11.25,11.25 -6.2132,0 -11.25,-5.0368 -11.25,-11.25 0,-6.21321 5.0368,-11.25 11.25,-11.25 6.2132,0 11.25,5.03679 11.25,11.25 z m 0,562.5 c 0,6.21319 -5.0368,11.25 -11.25,11.25 -6.2132,0 -11.25,-5.03681 -11.25,-11.25 0,-6.2132 5.0368,-11.25 11.25,-11.25 6.2132,0 11.25,5.0368 11.25,11.25 z m 0,157.5 c 0,6.21319 -5.0368,11.25 -11.25,11.25 -6.2132,0 -11.25,-5.03681 -11.25,-11.25 0,-6.2132 5.0368,-11.25 11.25,-11.25 6.2132,0 11.25,5.0368 11.25,11.25 z m -67.5,-877.5 c 0,6.2132 -5.0368,11.25 -11.25,11.25 -6.2132,0 -11.25003,-5.0368 -11.25003,-11.25 0,-6.2132 5.03683,-11.25 11.25003,-11.25 6.2132,0 11.25,5.0368 11.25,11.25 z m 0,157.5 c 0,6.2132 -5.0368,11.25 -11.25,11.25 -6.2132,0 -11.25003,-5.0368 -11.25003,-11.25 0,-6.21321 5.03683,-11.25 11.25003,-11.25 6.2132,0 11.25,5.03679 11.25,11.25 z m 0,562.5 c 0,6.21319 -5.0368,11.25 -11.25,11.25 -6.2132,0 -11.25003,-5.03681 -11.25003,-11.25 0,-6.2132 5.03683,-11.25 11.25003,-11.25 6.2132,0 11.25,5.0368 11.25,11.25 z m 0,157.5 c 0,6.21319 -5.0368,11.25 -11.25,11.25 -6.2132,0 -11.25003,-5.03681 -11.25003,-11.25 0,-6.2132 5.03683,-11.25 11.25003,-11.25 6.2132,0 11.25,5.0368 11.25,11.25 z"
       id="path3117-3-6"
       inkscape:connector-curvature="0" />
    <path
       style="opacity:0.29583333;fill:#0000ff;fill-opacity:1;stroke:#0000ff;stroke-width:0.03543307;stroke-miterlimit:4;stroke-opacity:1;stroke-dasharray:none"
       d="m 585,309.8597 -90,0 0,-11.25 -90,0 0,11.25 -90,0 0,45 11.25,0 0,90 -11.25,0 0,45 90,0 0,11.25 90,0 0,-11.25 90,0 0,-45 -11.25,0 0,-90 11.25,0 0,-45 z"
       id="rect4385"
       inkscape:connector-curvature="0" />
    <path
       style="opacity:0.29583333;fill:#0000ff;fill-opacity:1;stroke:#0000ff;stroke-width:0.03543307;stroke-miterlimit:4;stroke-opacity:1;stroke-dasharray:none"
       d="M 411.78125 1181 L 411.75 1192.25 L 344.25 1192.1562 L 344.1875 1237.1562 L 332.9375 1237.125 L 332.78125 1327.125 L 344.03125 1327.125 L 344 1372.1562 L 411.46875 1372.2188 L 411.4375 1383.4688 L 501.46875 1383.625 L 501.46875 1372.375 L 573.46875 1372.5 L 573.53125 1327.5 L 562.5 1327.5 L 562.5 1237.5 L 573.6875 1237.5 L 573.75 1192.5 L 501.75 1192.375 L 501.75 1181.125 L 411.78125 1181 z "
       transform="translate(0,-1107.6403)"
       id="path4482" />
    <path
       style="opacity:0.19166667;fill:#0000ff;stroke:#0000ff;stroke-width:0.03543307;stroke-linecap:butt;stroke-linejoin:miter;stroke-miterlimit:4;stroke-opacity:1;stroke-dasharray:none"
       d="m 247.5625,-50.2965 -66.71875,13.3438 2.15625,10.875 -88.25,17.625 -2.15625,-10.8438 -70.03125,14 0,11.25 0,33.75 0,11.25 11.25,0 0,90 -11.25,0 0,11.25 0,33.75 11.25,0 0,90 -11.25,0 0,135 11.25,0 0,90 -11.25,0 0,135 11.25,0 0,90 -11.25,0 0,33.75 0,11.25 11.25,0 0,90 -11.25,0 0,11.25 0,33.75 0,11.25 69.65625,13.9375 2.125,-10.7813 88.28125,17.625 -2.15625,10.8126 67.09375,13.4062 90,0 0,-11.25 90,0 0,11.25 90,0 -0.0937,-0.5312 70.625,-14.0626 -2.1875,-11.0312 88.25,-17.5938 2.21875,11.0313 66.1875,-13.1875 0,-10.875 0,-33.75 0,-11.25 -11.25,0 0,-90 11.25,0 0,-11.25 0,-33.75 -11.25,0 0,-90 11.25,0 0,-135 -11.25,0 0,-90 11.25,0 0,-135 -11.25,0 0,-90 11.25,0 0,-33.75 0,-11.25 -11.25,0 0,-90 11.25,0 0,-11.25 0,-33.75 0,-11.25 -66.1875,-13.1875 -2.21875,11.0313 -88.25,-17.5938 2.1875,-11.0312 -70.59375,-14.0626 0.0312,-0.1562 -89.96875,0 0,11.25 -90,0 0,-11.25 -90,0 z m -168.75,101.25 607.5,0 0,708.75 -607.5,0 0,-708.75 z"
       id="path4500"
       inkscape:connector-curvature="0" />
    <path
       style="opacity:0.29583333;fill:#0000ff;fill-opacity:1;stroke:#0000ff;stroke-width:0.03543307;stroke-miterlimit:4;stroke-opacity:1;stroke-dasharray:none"
       d="M 911.25 11.25 L 911.25 22.5 L 866.25 22.5 L 866.25 56.25 L 978.75 56.25 L 978.75 168.75 L 866.25 168.75 L 866.25 202.5 L 855 202.5 L 855 292.5 L 866.25 292.5 L 866.25 427.5 L 855 427.5 L 855 517.5 L 866.25 517.5 L 866.25 652.5 L 855 652.5 L 855 742.5 L 866.25 742.5 L 866.25 776.25 L 978.75 776.25 L 978.75 888.75 L 866.25 888.75 L 866.25 922.5 L 911.25 922.5 L 911.25 933.75 L 1001.25 933.75 L 1001.25 922.5 L 1046.25 922.5 L 1046.25 877.5 L 1057.5 877.5 L 1057.5 787.5 L 1046.25 787.5 L 1046.25 742.5 L 1057.5 742.5 L 1057.5 652.5 L 1046.25 652.5 L 1046.25 517.5 L 1057.5 517.5 L 1057.5 427.5 L 1046.25 427.5 L 1046.25 292.5 L 1057.5 292.5 L 1057.5 202.5 L 1046.25 202.5 L 1046.25 157.5 L 1057.5 157.5 L 1057.5 67.5 L 1046.25 67.5 L 1046.25 22.5 L 1001.25 22.5 L 1001.25 11.25 L 911.25 11.25 z "
       transform="translate(0,-1107.6403)"
       id="path4541" />
  </g>
</svg>
