<?xml version="1.0" encoding="UTF-8" standalone="no"?>
<!-- Created with Inkscape (http://www.inkscape.org/) -->

<svg
   xmlns:dc="http://purl.org/dc/elements/1.1/"
   xmlns:cc="http://creativecommons.org/ns#"
   xmlns:rdf="http://www.w3.org/1999/02/22-rdf-syntax-ns#"
   xmlns:svg="http://www.w3.org/2000/svg"
   xmlns="http://www.w3.org/2000/svg"
   xmlns:sodipodi="http://sodipodi.sourceforge.net/DTD/sodipodi-0.dtd"
   xmlns:inkscape="http://www.inkscape.org/namespaces/inkscape"
   width="2125.9841"
   height="1062.9921"
   id="svg3989"
   version="1.1"
   inkscape:version="0.48.5 r10040"
   sodipodi:docname="gforce2_mm_v2.svg">
  <defs
     id="defs3991" />
  <sodipodi:namedview
     id="base"
     pagecolor="#ffffff"
     bordercolor="#666666"
     borderopacity="1.0"
     inkscape:pageopacity="0.0"
     inkscape:pageshadow="2"
     inkscape:zoom="0.37998489"
     inkscape:cx="1017.8552"
     inkscape:cy="732.07133"
     inkscape:document-units="mm"
     inkscape:current-layer="layer1"
     showgrid="true"
     units="mm"
     inkscape:window-width="1440"
     inkscape:window-height="799"
     inkscape:window-x="0"
     inkscape:window-y="0"
     inkscape:window-maximized="1">
    <inkscape:grid
       type="xygrid"
       id="grid3997"
       empspacing="10"
       visible="true"
       enabled="true"
       snapvisiblegridlinesonly="true"
       units="mm"
       spacingx="1mm"
       spacingy="1mm" />
  </sodipodi:namedview>
  <metadata
     id="metadata3994">
    <rdf:RDF>
      <cc:Work
         rdf:about="">
        <dc:format>image/svg+xml</dc:format>
        <dc:type
           rdf:resource="http://purl.org/dc/dcmitype/StillImage" />
        <dc:title></dc:title>
      </cc:Work>
    </rdf:RDF>
  </metadata>
  <g
     inkscape:label="Layer 1"
     inkscape:groupmode="layer"
     id="layer1"
     transform="translate(0,10.629917)">
    <path
       style="fill:#d4e7ed;fill-opacity:1;stroke:#000000;stroke-width:1px;stroke-linecap:butt;stroke-linejoin:miter;stroke-opacity:1"
       d="m 779.53617,60.240591 -70.15625,-10.031248 -1.5,10.499998 -105.21875,-15.093748 1.5,-10.4375 -72.65625,-10.375 -70.875,0 0,10.625 -106.28125,0 0,-10.625 -70.875,0 -73.1875,10.46875 1.4375,10.09375 -105.25,14.843748 -1.375,-9.906248 -69.65624,9.937498 0,17.71875 10.62499,0 0,28.343749 -10.62499,0 0,17.71875 0,106.28125 0,42.53125 10.62499,0 0,106.3125 -10.62499,0 0,106.28125 10.62499,0 0,70.875 -10.62499,0 0,106.28125 10.62499,0 0,106.3125 -10.62499,0 0,42.53125 0,106.28125 0,17.71875 10.62499,0 0,28.34375 -10.62499,0 0,17.71875 70.15624,10.03125 1.5,-10.28125 105.1875,15.375 -1.46875,9.93751 72.65625,10.375 70.875,0 0,-10.625 106.28125,0 0,10.625 70.875,0 72.65625,-10.375 -1.4375,-9.84376 105.15625,-15.4375 1.5,10.25 70.15625,-10.03125 0,-17.71875 -10.625,0 0,-28.34375 10.625,0 0,-17.71875 0,-106.28125 0,-42.53125 -10.625,0 0,-106.3125 10.625,0 0,-106.28125 -10.625,0 0,-70.875 10.625,0 0,-106.28125 -10.625,0 0,-106.3125 10.625,0 0,-42.53125 0,-106.28125 0,-17.71875 -10.625,0 0,-28.343749 10.625,0 0,-17.71875 z"
       id="path4007"
       inkscape:connector-curvature="0" />
    <path
       style="fill:#7cd6ed;fill-opacity:1;stroke:#00000e;stroke-width:0.03543307000000000;stroke-miterlimit:4;stroke-opacity:1;stroke-dasharray:none"
       d="M 1594.5 70.875 L 1594.5 124.03125 L 1583.875 124.03125 L 1583.875 251.59375 L 1594.5 251.59375 L 1594.5 460.625 L 1583.875 460.625 L 1583.875 602.375 L 1594.5 602.375 L 1594.5 811.40625 L 1583.875 811.40625 L 1583.875 938.96875 L 1594.5 938.96875 L 1594.5 992.125 L 1629.9062 992.125 L 1629.9062 977.9375 L 1736.2188 977.9375 L 1736.2188 992.125 L 1771.6562 992.125 L 1771.6562 974.40625 L 1782.2812 974.40625 L 1782.2812 946.0625 L 1771.6562 946.0625 L 1771.6562 928.34375 L 1665.375 928.34375 L 1665.375 822.0625 L 1771.6562 822.0625 L 1771.6562 779.53125 L 1782.2812 779.53125 L 1782.2812 673.21875 L 1771.6562 673.21875 L 1771.6562 566.9375 L 1782.2812 566.9375 L 1782.2812 496.0625 L 1771.6562 496.0625 L 1771.6562 389.78125 L 1782.2812 389.78125 L 1782.2812 283.46875 L 1771.6562 283.46875 L 1771.6562 240.9375 L 1665.375 240.9375 L 1665.375 134.65625 L 1771.6562 134.65625 L 1771.6562 116.9375 L 1782.2812 116.9375 L 1782.2812 88.59375 L 1771.6562 88.59375 L 1771.6562 70.875 L 1736.2188 70.875 L 1736.2188 85.03125 L 1629.9062 85.03125 L 1629.9062 70.875 L 1594.5 70.875 z M 1704.3438 453.53125 C 1721.956 453.53125 1736.2188 467.82527 1736.2188 485.4375 C 1736.2188 503.04973 1721.956 517.3125 1704.3438 517.3125 C 1686.7315 517.3125 1672.4375 503.04973 1672.4375 485.4375 C 1672.4375 467.82527 1686.7315 453.53125 1704.3438 453.53125 z M 1704.3438 545.65625 C 1721.956 545.65625 1736.2188 559.95027 1736.2188 577.5625 C 1736.2188 595.17473 1721.956 609.4375 1704.3438 609.4375 C 1686.7315 609.4375 1672.4375 595.17473 1672.4375 577.5625 C 1672.4375 559.95027 1686.7315 545.65625 1704.3438 545.65625 z "
       transform="translate(0,-10.629917)"
       id="path4567" />
    <path
       style="fill:#df4bed;fill-opacity:1;stroke:#00000e;stroke-width:0.03543307;stroke-miterlimit:4;stroke-opacity:1;stroke-dasharray:none"
       d="M 814.96875 1123.2188 L 814.96875 1133.8438 L 744.09375 1133.8438 L 744.09375 1169.2812 L 758.28125 1169.2812 L 758.28125 1275.5938 L 744.09375 1275.5938 L 744.09375 1311 L 814.96875 1311 L 814.96875 1321.625 L 921.25 1321.625 L 921.25 1311 L 992.125 1311 L 992.125 1275.5938 L 977.9375 1275.5938 L 977.9375 1169.2812 L 992.125 1169.2812 L 992.125 1133.8438 L 921.25 1133.8438 L 921.25 1123.2188 L 814.96875 1123.2188 z M 822.0625 1211.7812 C 839.6747 1211.7812 853.9375 1226.044 853.9375 1243.6562 C 853.9375 1261.2686 839.6747 1275.5625 822.0625 1275.5625 C 804.4503 1275.5625 790.15625 1261.2685 790.15625 1243.6562 C 790.15625 1226.0441 804.4503 1211.7812 822.0625 1211.7812 z M 914.1875 1211.7812 C 931.7997 1211.7812 946.0625 1226.044 946.0625 1243.6562 C 946.0625 1261.2686 931.7997 1275.5625 914.1875 1275.5625 C 896.5753 1275.5625 882.28125 1261.2685 882.28125 1243.6562 C 882.28125 1226.0441 896.5753 1211.7812 914.1875 1211.7812 z "
       transform="translate(0,-10.629917)"
       id="path4587" />
    <path
       style="fill:#d4e7ed;fill-opacity:1;stroke:#000000;stroke-width:1px;stroke-linecap:butt;stroke-linejoin:miter;stroke-opacity:1"
       d="M 1063 35.46875 L 989.8125 45.9375 L 991.25 56.03125 L 886 70.875 L 884.625 60.96875 L 815.1875 70.875 L 814.96875 70.875 L 814.96875 124.03125 L 825.59375 124.03125 L 825.59375 251.59375 L 814.96875 251.59375 L 814.96875 283.5 L 814.96875 460.625 L 825.59375 460.625 L 825.59375 602.375 L 814.96875 602.375 L 814.96875 673.25 L 814.96875 811.40625 L 825.59375 811.40625 L 825.59375 938.96875 L 814.96875 938.96875 L 814.96875 946.09375 L 814.96875 992.125 L 814.96875 992.15625 L 885.125 1002.1875 L 886.625 991.90625 L 991.8125 1007.2812 L 990.34375 1017.2188 L 1063 1027.5938 L 1133.875 1027.5938 L 1133.875 1016.9688 L 1240.1562 1016.9688 L 1240.1562 1027.5938 L 1311.0312 1027.5938 L 1383.6875 1017.2188 L 1382.25 1007.375 L 1487.4062 991.9375 L 1488.9062 1002.1875 L 1559.0625 992.15625 L 1559.0625 992.125 L 1559.0625 946.09375 L 1559.0625 938.96875 L 1548.4375 938.96875 L 1548.4375 811.40625 L 1559.0625 811.40625 L 1559.0625 673.25 L 1559.0625 602.375 L 1548.4375 602.375 L 1548.4375 460.625 L 1559.0625 460.625 L 1559.0625 283.5 L 1559.0625 251.59375 L 1548.4375 251.59375 L 1548.4375 124.03125 L 1559.0625 124.03125 L 1559.0625 70.875 L 1558.8438 70.875 L 1488.9062 60.875 L 1487.4062 71.375 L 1382.1875 56.28125 L 1383.6875 45.84375 L 1311.0312 35.46875 L 1240.1562 35.46875 L 1240.1562 46.09375 L 1133.875 46.09375 L 1133.875 35.46875 L 1063 35.46875 z M 850.40625 106.3125 L 1523.625 106.3125 L 1523.625 531.53125 L 1523.625 744.125 L 1523.625 814.96875 L 850.40625 814.96875 L 850.40625 744.125 L 850.40625 531.53125 L 850.40625 106.3125 z M 875.21875 885.84375 L 885.84375 885.84375 L 885.84375 956.71875 L 875.21875 956.71875 L 875.21875 885.84375 z M 921.28125 885.84375 L 931.90625 885.84375 L 931.90625 956.71875 L 921.28125 956.71875 L 921.28125 885.84375 z M 1442.125 885.84375 L 1452.75 885.84375 L 1452.75 956.71875 L 1442.125 956.71875 L 1442.125 885.84375 z M 1488.1875 885.84375 L 1498.8125 885.84375 L 1498.8125 956.71875 L 1488.1875 956.71875 L 1488.1875 885.84375 z M 974.40625 903.53125 C 984.19082 903.53125 992.125 911.46543 992.125 921.25 C 992.125 931.03457 984.19082 938.96875 974.40625 938.96875 C 964.62168 938.96875 956.6875 931.03457 956.6875 921.25 C 956.6875 911.46543 964.62168 903.53125 974.40625 903.53125 z M 1399.5938 903.53125 C 1409.3783 903.53125 1417.3125 911.46543 1417.3125 921.25 C 1417.3125 931.03457 1409.3783 938.96875 1399.5938 938.96875 C 1389.8092 938.96875 1381.875 931.03457 1381.875 921.25 C 1381.875 911.46543 1389.8092 903.53125 1399.5938 903.53125 z M 1097.3438 921.28125 C 1097.7061 921.2629 1098.0706 921.28125 1098.4375 921.28125 C 1110.179 921.28125 1119.6875 930.78975 1119.6875 942.53125 C 1119.6875 954.27275 1110.179 963.8125 1098.4375 963.8125 C 1086.696 963.8125 1077.1875 954.27275 1077.1875 942.53125 C 1077.1875 931.15667 1086.1113 921.85008 1097.3438 921.28125 z M 1185.9062 921.28125 C 1186.2686 921.2629 1186.6331 921.28125 1187 921.28125 C 1198.7415 921.28125 1208.2812 930.78975 1208.2812 942.53125 C 1208.2812 954.27275 1198.7415 963.8125 1187 963.8125 C 1175.2585 963.8125 1165.75 954.27275 1165.75 942.53125 C 1165.75 931.15667 1174.6738 921.85008 1185.9062 921.28125 z M 1274.5 921.28125 C 1274.8623 921.2629 1275.2268 921.28125 1275.5938 921.28125 C 1286.9684 921.28125 1296.2744 930.2045 1296.8438 941.4375 C 1296.8618 941.8001 1296.8438 942.16435 1296.8438 942.53125 C 1296.8438 954.27275 1287.3353 963.8125 1275.5938 963.8125 C 1263.8522 963.8125 1254.3438 954.27275 1254.3438 942.53125 C 1254.3438 931.15667 1263.2675 921.85008 1274.5 921.28125 z "
       transform="translate(0,-10.629917)"
       id="path4616" />
    <path
       style="fill:#2c4bed;fill-opacity:1;stroke:#00000e;stroke-width:0.03543307;stroke-miterlimit:4;stroke-opacity:1;stroke-dasharray:none"
       d="m 124.01356,1112.6168 0,10.625 -17.7188,0 -35.437346,354.3125 17.7187,0 0,10.6563 70.874916,0 0,-10.6563 17.7187,0 35.4376,-354.3125 -17.7188,0 0,-10.625 -70.87497,0 z m 28.34377,46.0625 c 19.569,0 35.4374,15.8684 35.4374,35.4375 0,19.5692 -15.8683,35.4063 -35.4374,35.4063 -19.56917,0 -35.40627,-15.8371 -35.40627,-35.4063 0,-19.5691 15.8371,-35.4375 35.40627,-35.4375 z m -10.625,106.2813 c 19.569,0 35.4374,15.8683 35.4374,35.4375 0,19.5691 -15.8683,35.4375 -35.4374,35.4375 -19.56917,0 -35.43757,-15.8684 -35.43757,-35.4375 0,-19.5692 15.8684,-35.4375 35.43757,-35.4375 z m -10.62497,106.3125 c 19.56897,0 35.43737,15.8683 35.43737,35.4375 0,19.5691 -15.8683,35.4375 -35.43737,35.4375 -19.5692,0 -35.437546,-15.8684 -35.437546,-35.4375 0,-19.5692 15.868346,-35.4375 35.437546,-35.4375 z"
       id="rect4689"
       inkscape:connector-curvature="0" />
    <path
       inkscape:connector-curvature="0"
       id="path4706"
       d="m 255.12073,1112.6213 0,10.625 -17.7188,0 -35.4374,354.3125 17.7187,0 0,10.6562 70.875,0 0,-10.6562 17.7187,0 35.4376,-354.3125 -17.7188,0 0,-10.625 -70.875,0 z m 28.3438,46.0625 c 19.569,0 35.4374,15.8683 35.4374,35.4375 0,19.5691 -15.8683,35.4062 -35.4374,35.4062 -19.5692,0 -35.4063,-15.8371 -35.4063,-35.4062 0,-19.5692 15.8371,-35.4375 35.4063,-35.4375 z m -10.625,106.2812 c 19.569,0 35.4374,15.8684 35.4374,35.4375 0,19.5692 -15.8683,35.4375 -35.4374,35.4375 -19.5692,0 -35.4376,-15.8683 -35.4376,-35.4375 0,-19.5691 15.8684,-35.4375 35.4376,-35.4375 z m -10.625,106.3125 c 19.569,0 35.4374,15.8684 35.4374,35.4375 0,19.5692 -15.8683,35.4375 -35.4374,35.4375 -19.5692,0 -35.4376,-15.8683 -35.4376,-35.4375 0,-19.5691 15.8684,-35.4375 35.4376,-35.4375 z"
       style="fill:#2c4bed;fill-opacity:1;stroke:#00000e;stroke-width:0.03543307;stroke-miterlimit:4;stroke-opacity:1;stroke-dasharray:none" />
    <path
       style="fill:#2c4bed;fill-opacity:1;stroke:#00000e;stroke-width:0.03543307;stroke-miterlimit:4;stroke-opacity:1;stroke-dasharray:none"
       d="m 396.84873,1112.5944 0,10.625 -17.7188,0 -35.4374,354.3125 17.7187,0 0,10.6563 70.875,0 0,-10.6563 17.7187,0 35.4376,-354.3125 -17.7188,0 0,-10.625 -70.875,0 z m 28.3438,46.0625 c 19.569,0 35.4374,15.8684 35.4374,35.4375 0,19.5692 -15.8683,35.4063 -35.4374,35.4063 -19.5692,0 -35.4063,-15.8371 -35.4063,-35.4063 0,-19.5691 15.8371,-35.4375 35.4063,-35.4375 z m -10.625,106.2813 c 19.569,0 35.4374,15.8684 35.4374,35.4375 0,19.5691 -15.8683,35.4375 -35.4374,35.4375 -19.5692,0 -35.4376,-15.8684 -35.4376,-35.4375 0,-19.5691 15.8684,-35.4375 35.4376,-35.4375 z m -10.625,106.3125 c 19.569,0 35.4374,15.8684 35.4374,35.4375 0,19.5691 -15.8683,35.4375 -35.4374,35.4375 -19.5692,0 -35.4376,-15.8684 -35.4376,-35.4375 0,-19.5691 15.8684,-35.4375 35.4376,-35.4375 z"
       id="path4708"
       inkscape:connector-curvature="0" />
    <path
       inkscape:connector-curvature="0"
       id="path4710"
       d="m 538.58533,1112.6213 0,10.625 -17.7188,0 -35.4374,354.3125 17.7187,0 0,10.6562 70.875,0 0,-10.6562 17.7187,0 35.4376,-354.3125 -17.7188,0 0,-10.625 -70.875,0 z m 28.3438,46.0625 c 19.569,0 35.4374,15.8683 35.4374,35.4375 0,19.5691 -15.8683,35.4062 -35.4374,35.4062 -19.5692,0 -35.4063,-15.8371 -35.4063,-35.4062 0,-19.5692 15.8371,-35.4375 35.4063,-35.4375 z m -10.625,106.2812 c 19.569,0 35.4374,15.8684 35.4374,35.4375 0,19.5692 -15.8683,35.4375 -35.4374,35.4375 -19.5692,0 -35.4376,-15.8683 -35.4376,-35.4375 0,-19.5691 15.8684,-35.4375 35.4376,-35.4375 z m -10.625,106.3125 c 19.569,0 35.4374,15.8684 35.4374,35.4375 0,19.5692 -15.8683,35.4375 -35.4374,35.4375 -19.5692,0 -35.4376,-15.8683 -35.4376,-35.4375 0,-19.5691 15.8684,-35.4375 35.4376,-35.4375 z"
       style="fill:#2c4bed;fill-opacity:1;stroke:#00000e;stroke-width:0.03543307;stroke-miterlimit:4;stroke-opacity:1;stroke-dasharray:none" />
    <path
       style="fill:#2cc2ed;fill-opacity:1;stroke:#00000e;stroke-width:0.03543307;stroke-miterlimit:4;stroke-opacity:1;stroke-dasharray:none"
       d="m 1101.9877,1112.572 0,10.6563 -3.5625,0 -14.1563,0 -56.7187,0 0,35.4375 -10.625,0 0,106.2812 10.625,0 0,35.4376 70.875,0 3.5625,0 0,10.625 99.1875,0 0,-10.625 3.5313,0 70.875,0 0,-35.4376 10.625,0 0,-106.2812 -10.625,0 0,-35.4375 -53.125,0 -17.75,0 -3.5313,0 0,-10.6563 -99.1875,0 z m 3.5,88.5938 c 17.6122,0 31.9062,14.2628 31.9062,31.875 0,17.6122 -14.294,31.9062 -31.9062,31.9062 -17.6122,0 -31.875,-14.294 -31.875,-31.9062 0,-17.6122 14.2628,-31.875 31.875,-31.875 z m 92.125,0 c 17.6122,0 31.9062,14.2628 31.9062,31.875 0,17.6122 -14.294,31.9062 -31.9062,31.9062 -17.6122,0 -31.875,-14.294 -31.875,-31.9062 0,-17.6122 14.2628,-31.875 31.875,-31.875 z"
       id="path4716"
       inkscape:connector-curvature="0" />
    <path
       style="fill:#df4bed;fill-opacity:1;stroke:#00000e;stroke-width:0.03543307;stroke-miterlimit:4;stroke-opacity:1;stroke-dasharray:none"
       d="M 814.96875 1335.8438 L 814.96875 1346.4688 L 744.09375 1346.4688 L 744.09375 1381.875 L 758.28125 1381.875 L 758.28125 1488.1875 L 744.09375 1488.1875 L 744.09375 1523.625 L 814.96875 1523.625 L 814.96875 1534.25 L 921.25 1534.25 L 921.25 1523.625 L 992.125 1523.625 L 992.125 1488.1875 L 977.9375 1488.1875 L 977.9375 1381.875 L 992.125 1381.875 L 992.125 1346.4688 L 921.25 1346.4688 L 921.25 1335.8438 L 814.96875 1335.8438 z "
       transform="translate(0,-10.629917)"
       id="path4728" />
    <path
       id="path4745"
       d="m 1803.542,53.169727 0,53.156253 -10.625,0 0,127.5625 10.625,0 0,209.03125 -10.625,0 0,141.75 10.625,0 0,209.03125 -10.625,0 0,127.5625 10.625,0 0,53.15625 35.4062,0 0,-14.1875 106.3126,0 0,14.1875 35.4374,0 0,-17.71875 10.625,0 0,-28.34375 -10.625,0 0,-17.71875 -106.2812,0 0,-106.28125 106.2812,0 0,-42.53125 10.625,0 0,-106.3125 -10.625,0 0,-106.28125 10.625,0 0,-70.875 -10.625,0 0,-106.28125 10.625,0 0,-106.3125 -10.625,0 0,-42.53125 -106.2812,0 0,-106.28125 106.2812,0 0,-17.718753 10.625,0 0,-28.34375 -10.625,0 0,-17.71875 -35.4374,0 0,14.15625 -106.3126,0 0,-14.15625 -35.4062,0 z m 109.8438,382.656253 c 17.6122,0 31.875,14.29402 31.875,31.90625 0,17.61223 -14.2628,31.875 -31.875,31.875 -17.6123,0 -31.9063,-14.26277 -31.9063,-31.875 0,-17.61223 14.294,-31.90625 31.9063,-31.90625 z m 0,92.125 c 17.6122,0 31.875,14.29402 31.875,31.90625 0,17.61223 -14.2628,31.875 -31.875,31.875 -17.6123,0 -31.9063,-14.26277 -31.9063,-31.875 0,-17.61223 14.294,-31.90625 31.9063,-31.90625 z"
       style="fill:#7cd6ed;fill-opacity:1;stroke:#00000e;stroke-width:0.03543307;stroke-miterlimit:4;stroke-opacity:1;stroke-dasharray:none"
       inkscape:connector-curvature="0" />
    <path
       inkscape:connector-curvature="0"
       id="path4747"
       d="m 1101.9966,1325.1704 0,10.6563 -3.5625,0 -14.1563,0 -56.7187,0 0,35.4375 -10.625,0 0,106.2812 10.625,0 0,35.4376 70.875,0 3.5625,0 0,10.625 99.1875,0 0,-10.625 3.5313,0 70.875,0 0,-35.4376 10.625,0 0,-106.2812 -10.625,0 0,-35.4375 -53.125,0 -17.75,0 -3.5313,0 0,-10.6563 -99.1875,0 z m 3.5,88.5938 c 17.6122,0 31.9062,14.2628 31.9062,31.875 0,17.6122 -14.294,31.9062 -31.9062,31.9062 -17.6122,0 -31.875,-14.294 -31.875,-31.9062 0,-17.6122 14.2628,-31.875 31.875,-31.875 z m 92.125,0 c 17.6122,0 31.9062,14.2628 31.9062,31.875 0,17.6122 -14.294,31.9062 -31.9062,31.9062 -17.6122,0 -31.875,-14.294 -31.875,-31.9062 0,-17.6122 14.2628,-31.875 31.875,-31.875 z"
       style="fill:#2cc2ed;fill-opacity:1;stroke:#00000e;stroke-width:0.03543307;stroke-miterlimit:4;stroke-opacity:1;stroke-dasharray:none" />
    <path
       style="fill:#46bcd8;fill-opacity:0.69572365;stroke:#00000e;stroke-width:0.03543307;stroke-miterlimit:4;stroke-opacity:1;stroke-dasharray:none"
       d="m 35.433071,1512.9921 0,141.7187 673.218749,0 0,-141.7187 -673.218749,0 z m 24.78125,35.4063 10.625,0 0,70.875 -10.625,0 0,-70.875 z m 46.062499,0 10.625,0 0,70.875 -10.625,0 0,-70.875 z m 520.875,0 10.625,0 0,70.875 -10.625,0 0,-70.875 z m 46.0625,0 10.625,0 0,70.875 -10.625,0 0,-70.875 z"
       id="rect4749"
       inkscape:connector-curvature="0" />
    <path
       style="fill:#2cc2ed;fill-opacity:1;stroke:#00000e;stroke-width:0.03543307;stroke-miterlimit:4;stroke-opacity:1;stroke-dasharray:none"
       d="M 1420.9062 1123.1875 L 1420.9062 1133.8438 L 1417.3438 1133.8438 L 1403.1875 1133.8438 L 1346.4688 1133.8438 L 1346.4688 1169.2812 L 1335.8438 1169.2812 L 1335.8438 1275.5625 L 1346.4688 1275.5625 L 1346.4688 1311 L 1417.3438 1311 L 1420.9062 1311 L 1420.9062 1321.625 L 1520.0938 1321.625 L 1520.0938 1311 L 1523.625 1311 L 1594.5 1311 L 1594.5 1275.5625 L 1605.125 1275.5625 L 1605.125 1169.2812 L 1594.5 1169.2812 L 1594.5 1133.8438 L 1541.375 1133.8438 L 1523.625 1133.8438 L 1520.0938 1133.8438 L 1520.0938 1123.1875 L 1420.9062 1123.1875 z "
       transform="translate(0,-10.629917)"
       id="path4760" />
    <path
       id="path4765"
       d="m 1420.8852,1325.1796 0,10.6563 -3.5624,0 -14.1563,0 -56.7187,0 0,35.4374 -10.625,0 0,106.2813 10.625,0 0,35.4375 70.875,0 3.5624,0 0,10.625 99.1876,0 0,-10.625 3.5312,0 70.875,0 0,-35.4375 10.625,0 0,-106.2813 -10.625,0 0,-35.4374 -53.125,0 -17.75,0 -3.5312,0 0,-10.6563 -99.1876,0 z"
       style="fill:#2cc2ed;fill-opacity:1;stroke:#00000e;stroke-width:0.03543307;stroke-miterlimit:4;stroke-opacity:1;stroke-dasharray:none"
       inkscape:connector-curvature="0" />
  </g>
</svg>
