<?xml version="1.0" encoding="UTF-8" standalone="no"?>
<!-- Created with Inkscape (http://www.inkscape.org/) -->

<svg
   xmlns:dc="http://purl.org/dc/elements/1.1/"
   xmlns:cc="http://creativecommons.org/ns#"
   xmlns:rdf="http://www.w3.org/1999/02/22-rdf-syntax-ns#"
   xmlns:svg="http://www.w3.org/2000/svg"
   xmlns="http://www.w3.org/2000/svg"
   xmlns:sodipodi="http://sodipodi.sourceforge.net/DTD/sodipodi-0.dtd"
   xmlns:inkscape="http://www.inkscape.org/namespaces/inkscape"
   width="2160"
   height="1080"
   id="svg2"
   version="1.1"
   inkscape:version="0.48.5 r10040"
   sodipodi:docname="gforce2.svg">
  <defs
     id="defs4" />
  <sodipodi:namedview
     id="base"
     pagecolor="#ffffff"
     bordercolor="#666666"
     borderopacity="1.0"
     inkscape:pageopacity="0.0"
     inkscape:pageshadow="2"
     inkscape:zoom="0.88053136"
     inkscape:cx="657.05137"
     inkscape:cy="756.52274"
     inkscape:document-units="in"
     inkscape:current-layer="layer1"
     showgrid="true"
     units="in"
     inkscape:window-width="1440"
     inkscape:window-height="799"
     inkscape:window-x="0"
     inkscape:window-y="0"
     inkscape:window-maximized="1"
     gridtolerance="10000">
    <inkscape:grid
       type="xygrid"
       id="grid2985"
       empspacing="8"
       visible="true"
       enabled="true"
       snapvisiblegridlinesonly="true"
       units="in"
       spacingx="0.125in"
       spacingy="0.125in"
       dotted="false" />
  </sodipodi:namedview>
  <metadata
     id="metadata7">
    <rdf:RDF>
      <cc:Work
         rdf:about="">
        <dc:format>image/svg+xml</dc:format>
        <dc:type
           rdf:resource="http://purl.org/dc/dcmitype/StillImage" />
        <dc:title />
      </cc:Work>
    </rdf:RDF>
  </metadata>
  <g
     inkscape:label="Layer 1"
     inkscape:groupmode="layer"
     id="layer1"
     transform="translate(0,27.6378)">
    <path
       style="fill:#cbb0f0;fill-opacity:1;stroke:#000000;stroke-width:1px;stroke-linecap:butt;stroke-linejoin:miter;stroke-opacity:1"
       d="m 123.7497,-5.1372 -30.6875,92.0625 10.65625,3.5625 -28.34375,85.4063 -10.6875,-3.5313 -28.3125,85.4375 -0.25,-0.094 -2.375,7.1562 0,90 11.25,0 0,90 -11.25,0 0,90 1.9375,5.8125 0.03125,0 6.53125,19.7188 21.90625,65.6875 10.59375,-3.5 28.34375,85.4062 -10.46875,3.5 31.125,93.375 45,0 112.5,0 22.5,0 0,-11.25 90,0 0,11.25 135,0 0,-11.25 90,0 0,11.25 135,0 0,-11.25 90,0 0,11.25 33.75,0 112.5,0 33.75,0 30.75,-92.2187 -10.5312,-3.4688 28.3437,-85.4375 10.625,3.5313 10.6875,-32 17.6875,-53.4063 0.094,0.031 2.3438,-7.0313 0,-90 -11.25,0 0,-90 11.25,0 0,-90 -2.1562,-6.5 -0.75,0.25 -28.3438,-85.4062 -10.6875,3.5312 -28.3125,-85.4062 10.6562,-3.5625 -28.3124,-85.4063 0.375,-0.125 -2.4688,-7.375 -33.75,0 -112.5,0 -33.75,0 0,11.2500003 -90,0 0,-11.2500003 -135,0 0,11.2500003 -90,0 0,-11.2500003 -135,0 0,11.2500003 -90,0 0,-11.2500003 -22.5,0 -112.5,0 -45,0 z m 22.5,123.75 c 6.2132,0 11.25,5.0368 11.25,11.25 0,6.2132 -5.0368,11.25 -11.25,11.25 -6.2132,0 -11.25,-5.0368 -11.25,-11.25 0,-6.2132 5.0368,-11.25 11.25,-11.25 z m 135,0 c 6.2132,0 11.25,5.0368 11.25,11.25 0,6.2132 -5.0368,11.25 -11.25,11.25 -6.2132,0 -11.25,-5.0368 -11.25,-11.25 0,-6.2132 5.0368,-11.25 11.25,-11.25 z m 585,0 c 6.2132,0 11.25,5.0368 11.25,11.25 0,6.2132 -5.0368,11.25 -11.25,11.25 -6.2132,0 -11.25,-5.0368 -11.25,-11.25 0,-6.2132 5.0368,-11.25 11.25,-11.25 z m 135,0 c 6.2132,0 11.25,5.0368 11.25,11.25 0,6.2132 -5.0368,11.25 -11.25,11.25 -6.2132,0 -11.25,-5.0368 -11.25,-11.25 0,-6.2132 5.0368,-11.25 11.25,-11.25 z m -855,540 c 6.2132,0 11.25,5.0368 11.25,11.25 0,6.2132 -5.0368,11.25 -11.25,11.25 -6.2132,0 -11.25,-5.0368 -11.25,-11.25 0,-6.2132 5.0368,-11.25 11.25,-11.25 z m 135,0 c 6.2132,0 11.25,5.0368 11.25,11.25 0,6.2132 -5.0368,11.25 -11.25,11.25 -6.2132,0 -11.25,-5.0368 -11.25,-11.25 0,-6.2132 5.0368,-11.25 11.25,-11.25 z m 585,0 c 6.2132,0 11.25,5.0368 11.25,11.25 0,6.2132 -5.0368,11.25 -11.25,11.25 -6.2132,0 -11.25,-5.0368 -11.25,-11.25 0,-6.2132 5.0368,-11.25 11.25,-11.25 z m 135,0 c 6.2132,0 11.25,5.0368 11.25,11.25 0,6.2132 -5.0368,11.25 -11.25,11.25 -6.2132,0 -11.25,-5.0368 -11.25,-11.25 0,-6.2132 5.0368,-11.25 11.25,-11.25 z"
       id="path3782"
       inkscape:connector-curvature="0" />
    <path
       style="fill:#cbb0f0;fill-opacity:1;stroke:#000000;stroke-width:1px;stroke-linecap:butt;stroke-linejoin:miter;stroke-opacity:1"
       d="m 135.0004,1142.3622 -1.3125,3.9688 0.375,0.125 -28.3125,85.4374 10.6563,3.5313 -28.3125,85.4375 -10.6875,-3.5625 -28.3438,85.4375 -0.7812,-0.25 -3.2813,9.875 0,90 11.25,0 0,90 -11.25,0 0,90 2.1875,6.5312 0.7813,-0.25 28.3437,85.4375 10.6875,-3.5625 28.3125,85.4375 -10.6562,3.5313 28.3125,85.4375 -0.4063,0.125 2.4375,7.3125 33.75,0 0,-11.25 112.5,0 0,11.25 11.25,0 112.5,0 0,-11.25 135,0 0,11.25 90,0 0,-11.25 135,0 0,11.25 90,0 33.75,0 0,-11.25 112.5001,0 0,11.25 33.75,0 31,-93 -10.4688,-3.5 28.3125,-85.4063 10.625,3.5 16.5937,-49.7812 11.8127,-35.5938 0.062,0 2.0626,-6.2187 0,-90 -11.25,0 0,-90 11.25,0 0,-90 -2.4688,-7.4375 -1.0625,0.3437 -28.3126,-85.4375 -10.6875,3.5625 -28.3437,-85.4375 10.6874,-3.5312 -28.3437,-85.4375 0.6563,-0.2188 -2.125,-6.4062 -33.75,0 0,11.25 -112.5001,0 0,-11.25 -33.75,0 -90,0 0,11.25 -135,0 0,-11.25 -90,0 0,11.25 -135,0 0,-11.25 -112.5,0 -11.25,0 0,11.25 -112.5,0 0,-11.25 -33.75,0 z m 45,45 135,0 427.5,0 22.5,0 90,0 11.25,0 33.75,0 0,607.5 0,112.5 -33.75,0 -11.25,0 -90,0 -168.75,0 -281.25,0 -135,0 -78.75,-225 0,-270 78.75,-225 z m 765,67.5 90.0001,0 0,11.25 -90.0001,0 0,-11.25 z m 78.7501,22.5 c 6.2128,0 11.25,5.0368 11.25,11.25 0,6.2132 -5.037,11.25 -11.25,11.25 -6.2135,0 -11.25,-5.0368 -11.25,-11.25 0,-6.2132 5.0367,-11.25 11.25,-11.25 z m -78.7501,33.75 90.0001,0 0,11.25 -90.0001,0 0,-11.25 z m 90.0001,101.25 c 12.4261,0 22.5,10.0736 22.5,22.5 0,12.4264 -10.0739,22.5 -22.5,22.5 -12.4268,0 -22.5,-10.0736 -22.5,-22.5 0,-12.4264 10.0732,-22.5 22.5,-22.5 z m 0,112.5 c 12.4261,0 22.5,10.0736 22.5,22.5 0,12.4264 -10.0739,22.5 -22.5,22.5 -12.4268,0 -22.5,-10.0736 -22.5,-22.5 0,-12.4264 10.0732,-22.5 22.5,-22.5 z m 0,112.5 c 12.4261,0 22.5,10.0736 22.5,22.5 0,12.4264 -10.0739,22.5 -22.5,22.5 -12.4268,0 -22.5,-10.0736 -22.5,-22.5 0,-12.4264 10.0732,-22.5 22.5,-22.5 z m -90.0001,135 90.0001,0 0,11.25 -90.0001,0 0,-11.25 z m 78.7501,22.5 c 6.2128,0 11.25,5.0368 11.25,11.25 0,6.2132 -5.037,11.25 -11.25,11.25 -6.2135,0 -11.25,-5.0368 -11.25,-11.25 0,-6.2132 5.0367,-11.25 11.25,-11.25 z m -78.7501,33.75 90.0001,0 0,11.25 -90.0001,0 0,-11.25 z"
       id="path10695"
       inkscape:connector-curvature="0" />
    <path
       style="fill:#cbb045;fill-opacity:1;stroke:#f80000;stroke-width:0.89999998;stroke-miterlimit:4;stroke-opacity:0.98222219;stroke-dasharray:none"
       d="m 1417.8239,39.8622 -11.25,0 0,-33.75 -45,0 0,11.25 -90,0 0,-11.25 -45,0 0,33.75 112.5,0 0,112.5 -112.5,0 0,33.75 -11.25,0 0,90 11.25,0 0,135 -11.25,0 0,90 11.25,0 0,135 -11.25,0 0,90 11.25,0 0,33.75 112.5,0 0,112.5 -112.5,0 0,33.75 45,0 0,-11.25 90,0 0,11.25 45,0 0,-33.75 11.25,0 0,-112.5 -11.25,0 0,-123.75 11.25,0 0,-135 -11.25,0 0,-90 11.25,0 0,-135 -11.25,0 0,-123.75 11.25,0 0,-112.5 z m -78.75,365.625 c 0,18.6396 -15.1104,33.75 -33.75,33.75 -18.6397,0 -33.75,-15.1104 -33.75,-33.75 0,-18.63961 15.1103,-33.75 33.75,-33.75 18.6396,0 33.75,15.11039 33.75,33.75 z m 0,95.625 c 0,18.6396 -15.1104,33.75 -33.75,33.75 -18.6397,0 -33.75,-15.1104 -33.75,-33.75 0,-18.6396 15.1103,-33.75 33.75,-33.75 18.6396,0 33.75,15.1104 33.75,33.75 z"
       id="path10789"
       inkscape:connector-curvature="0" />
    <path
       style="fill:#4eb0c2;fill-opacity:1;stroke:#f80000;stroke-width:0.89999998;stroke-miterlimit:4;stroke-opacity:0.98222219;stroke-dasharray:none"
       d="m 438.75,844.34449 0,11.25 -90,0 0,45 11.25,0 0,90 -11.25,0 0,45.00001 90,0 0,11.25 90,0 0,-11.25 90,0 0,-45.00001 -11.25,0 0,-90 11.25,0 0,-45 -90,0 0,-11.25 -90,0 z m 0,78.75 c 18.6396,0 33.75,15.11039 33.75,33.75 0,18.63961 -15.1104,33.75 -33.75,33.75 -18.6396,0 -33.75,-15.11039 -33.75,-33.75 0,-18.63961 15.1104,-33.75 33.75,-33.75 z m 95.625,0 c 18.6396,0 33.75,15.11039 33.75,33.75 0,18.63961 -15.1104,33.75 -33.75,33.75 -18.6396,0 -33.75,-15.11039 -33.75,-33.75 0,-18.63961 15.1104,-33.75 33.75,-33.75 z"
       id="rect10795"
       inkscape:connector-curvature="0" />
    <path
       inkscape:connector-curvature="0"
       id="path10872"
       d="m 1829.0863,28.803624 0,11.25 -90,0 0,45 -5.625,0 0,89.999996 5.625,0 0,45 90,0 0,11.25 90,0 0,-11.25 90,0 0,-45 5.625,0 0,-89.999996 -5.625,0 0,-45 -90,0 0,-11.25 -90,0 z m -5.625,78.749996 c 18.6396,0 33.75,15.11039 33.75,33.75 0,18.63961 -15.1104,33.75 -33.75,33.75 -18.6396,0 -33.75,-15.11039 -33.75,-33.75 0,-18.63961 15.1104,-33.75 33.75,-33.75 z m 95.625,0 c 18.6396,0 33.75,15.11039 33.75,33.75 0,18.63961 -15.1104,33.75 -33.75,33.75 -18.6396,0 -33.75,-15.11039 -33.75,-33.75 0,-18.63961 15.1104,-33.75 33.75,-33.75 z"
       style="fill:#4eb0c2;fill-opacity:1;stroke:#f80000;stroke-width:0.89999998;stroke-miterlimit:4;stroke-opacity:0.98222219;stroke-dasharray:none" />
    <path
       inkscape:connector-curvature="0"
       id="path10906"
       d="m 1652.3132,33.437836 -11.25,0 0,-33.75000031 -45,0 0,11.25000031 -90,0 0,-11.25000031 -45,0 0,33.75000031 112.5,0 0,112.500004 -112.5,0 0,33.75 -11.25,0 0,90 11.25,0 0,135 -11.25,0 0,90 11.25,0 0,135 -11.25,0 0,90 11.25,0 0,33.75 112.5,0 0,112.5 -112.5,0 0,33.75 45,0 0,-11.25 90,0 0,11.25 45,0 0,-33.75 11.25,0 0,-112.5 -11.25,0 0,-123.75 11.25,0 0,-135 -11.25,0 0,-90 11.25,0 0,-135 -11.25,0 0,-123.75 11.25,0 0,-112.500004 z m -78.75,365.625004 c 0,18.6396 -15.1104,33.75 -33.75,33.75 -18.6397,0 -33.75,-15.1104 -33.75,-33.75 0,-18.63961 15.1103,-33.75 33.75,-33.75 18.6396,0 33.75,15.11039 33.75,33.75 z m 0,95.625 c 0,18.6396 -15.1104,33.75 -33.75,33.75 -18.6397,0 -33.75,-15.1104 -33.75,-33.75 0,-18.6396 15.1103,-33.75 33.75,-33.75 18.6396,0 33.75,15.1104 33.75,33.75 z"
       style="fill:#cbb045;fill-opacity:1;stroke:#f80000;stroke-width:0.89999998;stroke-miterlimit:4;stroke-opacity:0.98222219;stroke-dasharray:none" />
    <path
       style="fill:#4eb0c2;fill-opacity:1;stroke:#f80000;stroke-width:0.89999998;stroke-miterlimit:4;stroke-opacity:0.98222219;stroke-dasharray:none"
       d="m 1819.4498,260.08074 0,11.25 -90,0 0,45 -5.625,0 0,90 5.625,0 0,45 90,0 0,11.25 90,0 0,-11.25 90,0 0,-45 5.625,0 0,-90 -5.625,0 0,-45 -90,0 0,-11.25 -90,0 z m -5.625,78.75 c 18.6396,0 33.75,15.11039 33.75,33.75 0,18.63961 -15.1104,33.75 -33.75,33.75 -18.6396,0 -33.75,-15.11039 -33.75,-33.75 0,-18.63961 15.1104,-33.75 33.75,-33.75 z m 95.625,0 c 18.6396,0 33.75,15.11039 33.75,33.75 0,18.63961 -15.1104,33.75 -33.75,33.75 -18.6396,0 -33.75,-15.11039 -33.75,-33.75 0,-18.63961 15.1104,-33.75 33.75,-33.75 z"
       id="path10908"
       inkscape:connector-curvature="0" />
    <path
       style="fill:#4eb0c2;fill-opacity:1;stroke:#f80000;stroke-width:0.89999998;stroke-miterlimit:4;stroke-opacity:0.98222219;stroke-dasharray:none"
       d="M 1816.25 528.75 L 1816.25 540 L 1726.25 540 L 1726.25 585 L 1720.625 585 L 1720.625 675 L 1726.25 675 L 1726.25 720 L 1816.25 720 L 1816.25 731.25 L 1906.25 731.25 L 1906.25 720 L 1996.25 720 L 1996.25 675 L 2001.875 675 L 2001.875 585 L 1996.25 585 L 1996.25 540 L 1906.25 540 L 1906.25 528.75 L 1816.25 528.75 z "
       transform="translate(0,-27.6378)"
       id="path10910" />
    <path
       style="fill:#4eb0c2;fill-opacity:1;stroke:#f80000;stroke-width:0.89999998;stroke-miterlimit:4;stroke-opacity:0.98222219;stroke-dasharray:none"
       d="M 917.375 868.78125 L 917.375 880.03125 L 827.375 880.03125 L 827.375 925.03125 L 838.625 925.03125 L 838.625 1015.0312 L 827.375 1015.0312 L 827.375 1060.0312 L 917.375 1060.0312 L 917.375 1071.2812 L 1007.375 1071.2812 L 1007.375 1060.0312 L 1097.375 1060.0312 L 1097.375 1015.0312 L 1086.125 1015.0312 L 1086.125 925.03125 L 1097.375 925.03125 L 1097.375 880.03125 L 1007.375 880.03125 L 1007.375 868.78125 L 917.375 868.78125 z "
       transform="translate(0,-27.6378)"
       id="path10914" />
    <path
       style="fill:#4ee9c2;fill-opacity:1;stroke:#000000;stroke-width:1px;stroke-linecap:butt;stroke-linejoin:miter;stroke-opacity:1"
       d="m 1856.25,1119.8622 0,11.25 -11.25,0 -45,270 11.25,0 0,11.25 90,0 0,-11.25 11.25,0 45,-270 -11.25,0 0,-11.25 -90,0 z m 33.75,45 c 18.6396,0 33.75,15.1104 33.75,33.75 0,18.6396 -15.1104,33.75 -33.75,33.75 -18.6396,0 -33.75,-15.1104 -33.75,-33.75 0,-18.6396 15.1104,-33.75 33.75,-33.75 z m -22.5,135 c 18.6396,0 33.75,15.1104 33.75,33.75 0,18.6396 -15.1104,33.75 -33.75,33.75 -18.6396,0 -33.75,-15.1104 -33.75,-33.75 0,-18.6396 15.1104,-33.75 33.75,-33.75 z"
       id="path10918"
       inkscape:connector-curvature="0" />
    <path
       id="path10932"
       d="m 1991.25,1119.8622 0,11.25 -11.25,0 -45,270 11.25,0 0,11.25 90,0 0,-11.25 11.25,0 45,-270 -11.25,0 0,-11.25 -90,0 z m 33.75,45 c 18.6396,0 33.75,15.1104 33.75,33.75 0,18.6396 -15.1104,33.75 -33.75,33.75 -18.6396,0 -33.75,-15.1104 -33.75,-33.75 0,-18.6396 15.1104,-33.75 33.75,-33.75 z m -22.5,135 c 18.6396,0 33.75,15.1104 33.75,33.75 0,18.6396 -15.1104,33.75 -33.75,33.75 -18.6396,0 -33.75,-15.1104 -33.75,-33.75 0,-18.6396 15.1104,-33.75 33.75,-33.75 z"
       style="fill:#4ee9c2;fill-opacity:1;stroke:#000000;stroke-width:1px;stroke-linecap:butt;stroke-linejoin:miter;stroke-opacity:1"
       inkscape:connector-curvature="0" />
    <path
       inkscape:connector-curvature="0"
       style="fill:#4ee9c2;fill-opacity:1;stroke:#000000;stroke-width:1px;stroke-linecap:butt;stroke-linejoin:miter;stroke-opacity:1"
       d="m 2126.25,1119.8622 0,11.25 -11.25,0 -45,270 11.25,0 0,11.25 90,0 0,-11.25 11.25,0 45,-270 -11.25,0 0,-11.25 -90,0 z m 33.75,45 c 18.6396,0 33.75,15.1104 33.75,33.75 0,18.6396 -15.1104,33.75 -33.75,33.75 -18.6396,0 -33.75,-15.1104 -33.75,-33.75 0,-18.6396 15.1104,-33.75 33.75,-33.75 z m -22.5,135 c 18.6396,0 33.75,15.1104 33.75,33.75 0,18.6396 -15.1104,33.75 -33.75,33.75 -18.6396,0 -33.75,-15.1104 -33.75,-33.75 0,-18.6396 15.1104,-33.75 33.75,-33.75 z"
       id="path10934" />
    <path
       id="path10936"
       d="m 2261.25,1119.8622 0,11.25 -11.25,0 -45,270 11.25,0 0,11.25 90,0 0,-11.25 11.25,0 45,-270 -11.25,0 0,-11.25 -90,0 z m 33.75,45 c 18.6396,0 33.75,15.1104 33.75,33.75 0,18.6396 -15.1104,33.75 -33.75,33.75 -18.6396,0 -33.75,-15.1104 -33.75,-33.75 0,-18.6396 15.1104,-33.75 33.75,-33.75 z m -22.5,135 c 18.6396,0 33.75,15.1104 33.75,33.75 0,18.6396 -15.1104,33.75 -33.75,33.75 -18.6396,0 -33.75,-15.1104 -33.75,-33.75 0,-18.6396 15.1104,-33.75 33.75,-33.75 z"
       style="fill:#4ee9c2;fill-opacity:1;stroke:#000000;stroke-width:1px;stroke-linecap:butt;stroke-linejoin:miter;stroke-opacity:1"
       inkscape:connector-curvature="0" />
    <path
       style="fill:#4e56c2;fill-opacity:1;stroke:#f80000;stroke-width:0.89999998;stroke-miterlimit:4;stroke-opacity:0.98222219;stroke-dasharray:none"
       d="M 1170 1260 L 1170 1890 L 1350 1890 L 1350 1260 L 1170 1260 z M 1215 1282.5 L 1305 1282.5 L 1305 1293.75 L 1215 1293.75 L 1215 1282.5 z M 1215 1338.75 L 1305 1338.75 L 1305 1350 L 1215 1350 L 1215 1338.75 z M 1215 1800 L 1305 1800 L 1305 1811.25 L 1215 1811.25 L 1215 1800 z M 1215 1856.25 L 1305 1856.25 L 1305 1867.5 L 1215 1867.5 L 1215 1856.25 z "
       transform="translate(0,-27.6378)"
       id="rect10938" />
    <path
       id="path10957"
       d="m 1822.5,726.1122 0,11.25 -90,0 0,45 -5.625,0 0,90 5.625,0 0,45 90,0 0,11.25 90,0 0,-11.25 90,0 0,-45 5.625,0 0,-90 -5.625,0 0,-45 -90,0 0,-11.25 -90,0 z"
       style="fill:#4eb0c2;fill-opacity:1;stroke:#f80000;stroke-width:0.89999998;stroke-miterlimit:4;stroke-opacity:0.98222219;stroke-dasharray:none"
       inkscape:connector-curvature="0" />
    <rect
       style="fill:#4ef4c2;fill-opacity:1;stroke:#f80000;stroke-width:0.89999998;stroke-miterlimit:4;stroke-opacity:0.98222219;stroke-dasharray:none"
       id="rect10959"
       width="90"
       height="180"
       x="168.75"
       y="-5.1378002" />
    <rect
       y="624.86224"
       x="168.75"
       height="180"
       width="90"
       id="rect10961"
       style="fill:#4ef4c2;fill-opacity:1;stroke:#f80000;stroke-width:0.89999998;stroke-miterlimit:4;stroke-opacity:0.98222219;stroke-dasharray:none" />
    <rect
       style="fill:#4ef4c2;fill-opacity:1;stroke:#f80000;stroke-width:0.89999998;stroke-miterlimit:4;stroke-opacity:0.98222219;stroke-dasharray:none"
       id="rect10963"
       width="90"
       height="180"
       x="888.75"
       y="624.86218" />
    <rect
       y="-5.1378002"
       x="888.75"
       height="180"
       width="90"
       id="rect10965"
       style="fill:#4ef4c2;fill-opacity:1;stroke:#f80000;stroke-width:0.89999998;stroke-miterlimit:4;stroke-opacity:0.98222219;stroke-dasharray:none" />
  </g>
</svg>
